<svg width="695" height="707" viewBox="0 0 695 707" fill="none" xmlns="http://www.w3.org/2000/svg">
<path d="M507.065 605.318C514.72 619.607 522.374 633.898 530.032 648.187C536.154 645.124 542.278 642.063 548.404 639C542.789 625.222 537.176 611.442 531.561 597.663C523.396 600.214 515.23 602.766 507.065 605.318Z" stroke="#39424E" stroke-width="1.01333" stroke-miterlimit="10"/>
<path d="M484.099 574.697C494.306 589.497 504.514 604.297 514.72 619.097C517.368 618.914 520.49 618.482 523.906 617.566C529.842 615.975 534.467 613.517 537.684 611.442C531.562 595.621 525.438 579.799 519.314 563.979C514.21 561.427 509.107 558.875 504.003 556.325C497.368 562.447 490.734 568.571 484.099 574.697Z" fill="#39424E"/>
<path d="M546.872 634.408C544.79 637.016 539.456 642.902 531.562 643.594C530.502 643.686 529.478 643.678 528.5 643.594C523.418 649.661 519.3 654.909 516.251 658.904C508.246 669.39 505.338 674.206 507.066 677.277C507.535 678.113 508.198 678.55 508.596 678.808C512.74 681.481 519.534 677.594 539.218 665.029C550.828 657.616 554.606 655.048 554.527 651.249C554.5 649.893 552.978 646.754 549.935 640.532C548.668 637.942 547.596 635.825 546.872 634.408Z" fill="#39424E"/>
<path d="M528.5 496.613H465.727V484.364H528.5V496.613Z" stroke="#39424E" stroke-width="1.01333" stroke-miterlimit="10"/>
<path d="M450.417 493.009H405.311C401.027 493.009 397.042 490.886 394.649 487.333C392.257 483.78 391.791 479.289 393.403 475.318L408.389 438.44L415.893 441.488L400.91 478.369C400.305 479.857 400.473 481.477 401.37 482.81C402.269 484.142 403.703 484.908 405.311 484.908H450.417V493.009Z" fill="#E7EEEF"/>
<path d="M450.417 493.009H405.311C401.027 493.009 397.042 490.886 394.649 487.333C392.257 483.78 391.791 479.289 393.403 475.318L408.389 438.44L415.893 441.488L400.91 478.369C400.305 479.857 400.473 481.477 401.37 482.81C402.269 484.142 403.703 484.908 405.311 484.908H450.417V493.009Z" stroke="#39424E" stroke-width="1.35067" stroke-miterlimit="10"/>
<path d="M402.953 398.626C406.016 417.509 409.078 436.392 412.14 455.274H419.796C416.733 435.881 413.67 416.488 410.609 397.096L402.953 398.626Z" fill="#E7EEEF"/>
<path d="M402.953 398.626C406.016 417.509 409.078 436.392 412.14 455.274H419.796C416.733 435.881 413.67 416.488 410.609 397.096L402.953 398.626Z" stroke="#39424E" stroke-width="1.35067" stroke-miterlimit="10"/>
<path d="M430.736 467.651L419.398 469.447L403.864 371.331L415.202 369.536L430.736 467.651Z" fill="#E7EEEF"/>
<path d="M430.736 467.651L419.398 469.447L403.864 371.331L415.202 369.536L430.736 467.651Z" fill="#B7C9CC"/>
<path d="M430.736 467.651L419.398 469.447L403.864 371.331L415.202 369.536L430.736 467.651Z" stroke="#39424E" stroke-width="1.35067" stroke-miterlimit="10"/>
<path d="M357.788 508.096V704.07" stroke="#39424E" stroke-width="4.05067" stroke-miterlimit="10"/>
<path d="M573.165 609.91C567.552 642.062 561.937 674.215 556.324 706.367" stroke="#39424E" stroke-width="4.05067" stroke-miterlimit="10"/>
<path d="M648.039 610.983C656.814 642.42 665.588 673.856 674.362 705.294" stroke="#39424E" stroke-width="4.05067" stroke-miterlimit="10"/>
<path d="M438.168 380.254C448.885 371.066 459.603 361.881 470.32 352.694" stroke="#B7C9CC" stroke-width="1.01333" stroke-miterlimit="10" stroke-linecap="round"/>
<path d="M451.947 381.784C456.54 378.723 461.135 375.66 465.727 372.597" stroke="#B7C9CC" stroke-width="1.01333" stroke-miterlimit="10" stroke-linecap="round"/>
<path d="M450.417 407.813L508.597 377.191" stroke="#B7C9CC" stroke-width="1.01333" stroke-miterlimit="10" stroke-linecap="round"/>
<path d="M470.32 410.874C473.892 409.346 477.463 407.812 481.038 406.282" stroke="#B7C9CC" stroke-width="1.01333" stroke-miterlimit="10" stroke-linecap="round"/>
<path d="M456.54 421.591H467.258" stroke="#B7C9CC" stroke-width="1.01333" stroke-miterlimit="10" stroke-linecap="round"/>
<path d="M456.54 438.434L482.568 439.964" stroke="#B7C9CC" stroke-width="1.01333" stroke-miterlimit="10" stroke-linecap="round"/>
<path d="M479.506 426.185H508.596" stroke="#B7C9CC" stroke-width="1.01333" stroke-miterlimit="10" stroke-linecap="round"/>
<path d="M456.54 452.212C463.684 454.764 470.831 457.316 477.975 459.867" stroke="#B7C9CC" stroke-width="1.01333" stroke-miterlimit="10" stroke-linecap="round"/>
<path d="M594.335 346.57C592.967 349.241 591.076 353.436 589.743 358.82C586.623 371.406 585.64 394.156 597.397 400.157C599.068 401.009 604.965 403.55 615.769 398.626C617.301 402.709 618.832 406.792 620.363 410.874C630.569 409.344 640.776 407.813 650.983 406.281C648.905 402.745 646.629 398.132 644.86 392.501C642.383 384.624 641.807 377.644 641.797 372.598C635.996 356.054 623.507 344.541 609.645 343.508C606.432 343.268 600.953 343.43 594.335 346.57Z" fill="#E7EEEF"/>
<path d="M594.335 346.57C592.967 349.241 591.076 353.436 589.743 358.82C586.623 371.406 585.64 394.156 597.397 400.157C599.068 401.009 604.965 403.55 615.769 398.626C617.301 402.709 618.832 406.792 620.363 410.874C630.569 409.344 640.776 407.813 650.983 406.281C648.905 402.745 646.629 398.132 644.86 392.501C642.383 384.624 641.807 377.644 641.797 372.598C635.996 356.054 623.507 344.541 609.645 343.508C606.432 343.268 600.953 343.43 594.335 346.57Z" stroke="#39424E" stroke-width="1.35067" stroke-miterlimit="10"/>
<path d="M437.921 586.275C428.838 603.551 421.443 617.132 416.823 625.627C415.437 628.178 413.177 633.37 408.081 638.468C405.862 640.687 403.642 642.906 401.423 645.126C403.737 646.995 407.861 649.804 413.671 651.248C423.005 653.569 430.722 650.88 433.574 649.718C436.126 646.187 438.678 642.613 441.229 639C447.041 630.77 452.653 622.6 458.071 614.504C451.354 605.094 444.638 595.684 437.921 586.275Z" stroke="#39424E" stroke-width="1.01333" stroke-miterlimit="10"/>
<path d="M406.016 640.531C407.354 641.627 408.877 642.674 410.609 643.594C421.025 649.126 432.182 646.47 436.637 645.125C436.348 648.057 435.877 652.282 435.105 657.374C434.142 663.738 433.872 664.491 433.574 665.029C430.733 670.182 421.521 669.795 409.078 669.621C379.06 669.201 368.461 670.555 366.209 665.029C365.341 662.901 366.104 660.721 366.209 660.435C368.081 655.302 376.234 654.594 383.049 652.781C388.958 651.207 397.03 647.961 406.016 640.531Z" fill="#39424E"/>
<path d="M681.604 406.281C686.167 404.559 689.259 406.281 689.26 406.281C690.543 406.995 693.132 408.535 693.853 416.999C695.395 435.068 692.321 447.62 692.321 447.62C692.321 447.62 689.693 458.353 684.667 485.896C680.756 507.316 679.285 524.039 678.543 536.42C678.543 536.42 676.543 569.744 670.887 593.069C670.255 595.673 669.045 600.911 664.763 605.317C661.124 609.063 656.849 610.619 654.045 611.441C631.652 618.021 578.429 614.565 577.493 614.504C570.741 614.065 560.636 613.489 548.132 613.097C543.74 612.96 540.029 609.771 539.241 605.447L539.217 605.317C539.155 604.969 539.111 604.625 539.08 604.287C538.545 598.167 543.796 593.069 549.936 593.227C558.244 593.439 566.557 593.652 574.867 593.864C593.693 594.348 612.363 590.307 629.303 582.077C633.683 579.951 638.06 577.824 642.437 575.699C652.053 571.028 659.123 562.332 661.648 551.944C661.667 551.873 661.684 551.803 661.7 551.731C666.799 530.704 668.513 513.885 669.356 504.268C674.085 450.364 670.076 410.632 681.604 406.281Z" fill="#39424E"/>
<path d="M593.569 361.88C592.898 362.402 591.766 363.139 590.201 363.566C587.948 364.179 586.045 363.804 585.149 363.566" stroke="#39424E" stroke-width="1.35067" stroke-miterlimit="10" stroke-linecap="round"/>
<path d="M588.211 368.005C584.748 374.968 583.728 379.049 585.148 380.256C585.742 380.756 586.763 380.756 588.211 380.256" stroke="#39424E" stroke-width="1.01333" stroke-miterlimit="10"/>
<path d="M586.647 319.656C585.914 320.814 585.047 322.512 584.585 324.692C583.566 329.498 585.194 333.436 585.903 334.92L577.494 329.73C578.371 337.782 581.587 341.668 583.618 343.508C586.358 345.991 590.038 347.206 597.398 349.632C605.01 352.143 606.69 351.812 609.645 354.226C613.755 357.582 615.379 362.204 615.77 363.411C617.599 369.074 616.317 373.938 617.301 374.128C618.158 374.295 618.478 370.204 621.894 368.006C622.163 367.831 625.675 365.648 629.119 367.25C631.467 368.342 632.407 370.547 632.611 371.067C633.898 374.35 632.555 378.532 629.254 381.628C629.675 382.275 632.669 386.766 637.038 386.714C640.983 386.667 643.551 382.943 645.615 379.951C647.681 376.956 649.553 372.908 650.398 366.755C650.843 363.519 653.137 344.206 643.363 338.903C641.175 337.716 639.006 337.567 637.862 337.559C635.385 330.903 631.962 328.05 629.549 326.667C621.838 322.247 614.509 327.156 601.903 325.187C594.989 324.108 589.721 321.463 586.647 319.656Z" fill="#39424E"/>
<g opacity="0.169998">
<path d="M615.77 398.626C620.212 394.321 621.526 393.744 621.894 394.033C622.494 394.506 620.908 397.568 620.362 398.626C619.298 400.686 618.135 402.224 617.299 403.218C616.791 401.688 616.28 400.157 615.77 398.626Z" fill="#39424E"/>
</g>
<path d="M614.242 416.901C614.408 412.35 617.176 408.262 621.292 406.316C622.448 405.766 623.668 405.242 624.956 404.75C635.48 400.728 645.081 400.984 650.984 401.688C652.682 403.858 654.901 406.945 657.106 410.873C658.625 413.576 664.225 423.954 666.294 439.965C667.113 446.305 666.84 452.868 666.294 465.992C665.728 479.614 665.068 478.88 664.764 490.488C664.633 495.454 664.738 496.154 664.764 516.517C664.764 516.898 664.77 523.454 664.764 530.296C664.729 559.742 664.444 564.278 663.232 570.102C662.33 574.426 660.628 580.864 657.106 588.477C633.632 571.634 616.489 556.292 593.01 539.45C593.548 535.414 594.058 531.329 594.544 527.202C595.825 516.218 599.209 507.06 599.978 496.613C601.51 489.469 607.601 484.238 600.9 481.318C594.774 478.65 594.569 480.629 593.066 476.838C591.222 472.19 589.36 461.072 593.768 454.473C598.314 447.665 608.389 433.802 611.176 430.777C612.997 428.8 614.614 427.248 615.77 426.185C615.045 424.265 614.106 421.046 614.238 416.998L614.242 416.901Z" fill="#32C766"/>
<path d="M614.242 416.901C614.408 412.35 617.176 408.262 621.292 406.316C622.448 405.766 623.668 405.242 624.956 404.75C635.48 400.728 645.081 400.984 650.984 401.688C652.682 403.858 654.901 406.945 657.106 410.873C658.625 413.576 664.225 423.954 666.294 439.965C667.113 446.305 666.84 452.868 666.294 465.992C665.728 479.614 665.068 478.88 664.764 490.488C664.633 495.454 664.738 496.154 664.764 516.517C664.764 516.898 664.77 523.454 664.764 530.296C664.729 559.742 664.444 564.278 663.232 570.102C662.33 574.426 660.628 580.864 657.106 588.477C633.632 571.634 616.489 556.292 593.01 539.45C593.548 535.414 594.058 531.329 594.544 527.202C595.825 516.218 599.209 507.06 599.978 496.613C601.51 489.469 607.601 484.238 600.9 481.318C594.774 478.65 594.569 480.629 593.066 476.838C591.222 472.19 589.36 461.072 593.768 454.473C598.314 447.665 608.389 433.802 611.176 430.777C612.997 428.8 614.614 427.248 615.77 426.185C615.045 424.265 614.106 421.046 614.238 416.998L614.242 416.901Z" stroke="#39424E" stroke-width="1.33333" stroke-miterlimit="10"/>
<g opacity="0.169998">
<path d="M615.769 426.185C617.125 424.948 619.173 423.248 621.893 421.592C630.107 416.593 637.304 416.358 637.204 415.468C637.113 414.66 631.108 414.076 624.956 415.468C620.18 416.548 616.553 418.538 614.239 420.061C614.747 422.101 615.259 424.144 615.769 426.185Z" fill="#39424E"/>
</g>
<path d="M617.191 453.741L611.175 475.178C608.845 474.345 605.717 473.27 601.99 472.116C590.926 468.688 581.998 466.848 577.495 465.992C571.854 464.922 563.893 463.64 554.527 462.93C551.227 462.68 545.926 462.364 539.219 462.93C534.941 463.292 532.743 463.492 530.03 464.461C523.357 466.845 519.495 471.522 517.782 473.648C513.301 479.213 510.435 486.566 511.658 487.428C512.211 487.816 513.571 486.856 514.719 485.896C514.738 487.269 515.306 488.533 516.251 488.958C517.629 489.578 520.017 488.514 520.843 485.896C520.501 486.892 520.19 488.249 520.843 488.958C522.534 490.789 529.487 487.021 531.561 485.896C539.025 481.85 539.657 479.184 543.81 478.241C547.259 477.457 549.982 478.58 556.058 481.302C573.803 489.256 582.086 493.55 582.086 493.55C614.131 510.168 585.415 495.046 600.458 502.737C605.353 505.24 611.651 508.506 620.362 508.862C621.635 508.913 622.842 508.902 623.425 508.862C636.194 507.969 646.422 474.172 647.851 469.329C644.569 469.394 638.231 469.082 631.265 465.724C623.509 461.988 619.098 456.466 617.191 453.741Z" fill="#E7EEEF"/>
<path d="M617.191 453.741L611.175 475.178C608.845 474.345 605.717 473.27 601.99 472.116C590.926 468.688 581.998 466.848 577.495 465.992C571.854 464.922 563.893 463.64 554.527 462.93C551.227 462.68 545.926 462.364 539.219 462.93C534.941 463.292 532.743 463.492 530.03 464.461C523.357 466.845 519.495 471.522 517.782 473.648C513.301 479.213 510.435 486.566 511.658 487.428C512.211 487.816 513.571 486.856 514.719 485.896C514.738 487.269 515.306 488.533 516.251 488.958C517.629 489.578 520.017 488.514 520.843 485.896C520.501 486.892 520.19 488.249 520.843 488.958C522.534 490.789 529.487 487.021 531.561 485.896C539.025 481.85 539.657 479.184 543.81 478.241C547.259 477.457 549.982 478.58 556.058 481.302C573.803 489.256 582.086 493.55 582.086 493.55C614.131 510.168 585.415 495.046 600.458 502.737C605.353 505.24 611.651 508.506 620.362 508.862C621.635 508.913 622.842 508.902 623.425 508.862C636.194 507.969 646.422 474.172 647.851 469.329C644.569 469.394 638.231 469.082 631.265 465.724C623.509 461.988 619.098 456.466 617.191 453.741Z" stroke="#39424E" stroke-width="1.35067" stroke-miterlimit="10"/>
<path d="M514.72 485.896C515.612 483.783 517.036 481.044 519.313 478.241C520.893 476.296 522.504 474.788 523.907 473.647" stroke="#39424E" stroke-width="1.01333" stroke-miterlimit="10"/>
<path d="M520.844 487.427C521.76 485.76 523.209 483.531 525.437 481.302C526.781 479.958 528.798 478.224 531.561 476.71" stroke="#39424E" stroke-width="1.01333" stroke-miterlimit="10"/>
<path d="M660.169 580.82C656.975 575.848 652.968 570.612 647.921 565.511C626.516 543.864 599.841 538.191 586.68 536.42C577.248 533.952 563.555 530.58 546.872 527.235C495.433 516.914 484.959 520.751 479.972 523.198C470.512 527.84 466.373 534.559 451.636 561.23C440.436 581.498 427.868 604.684 414.319 630.471C417.643 631.422 421.011 632.423 424.42 633.476C430.201 635.264 435.808 637.112 441.229 639C452.243 627.775 463.767 615.076 475.388 600.816C486.196 587.556 495.688 574.66 504.003 562.448C524.896 576.266 543.539 585.478 557.589 591.538C572.84 598.116 583.311 601.252 601.989 606.848C608.839 608.9 611.748 609.626 615.769 609.91C617.124 610.007 643.853 611.508 655.577 593.07C657.219 590.487 659.224 586.478 660.169 580.82Z" fill="#39424E"/>
<g opacity="0.130005">
<path d="M504.003 562.448C510.305 564.251 519.984 567.219 531.561 571.635C545.593 576.985 547.66 578.836 563.713 585.415C581.992 592.903 592.196 596.981 606.584 599.193C617.153 600.819 624.764 601.92 634.141 599.193C647.947 595.179 656.423 585.681 660.169 580.82C659.265 584.54 657.276 590.515 652.515 596.132C641.887 608.669 625.784 609.597 620.363 609.911C611.795 610.405 603.308 607.696 586.68 602.255C581.651 600.611 568.303 596.109 551.465 588.476C535.235 581.117 522.993 574.125 516.253 570.103C511.209 567.096 507.037 564.433 504.003 562.448Z" fill="#39424E"/>
</g>
<path d="M504.003 508.096V704.07" stroke="#39424E" stroke-width="4.05067" stroke-miterlimit="10"/>
<path d="M545.341 510.392H317.215V492.02H545.341V510.392Z" fill="#E7EEEF" stroke="#39424E" stroke-width="1.35067" stroke-miterlimit="10"/>
<g opacity="0.190002">
<path d="M544.397 503.616H317.551V510.367H544.397V503.616Z" fill="#39424E"/>
</g>
<path d="M603.134 440.828C608.091 433.931 613.018 429.111 616.637 425.975C619.587 423.419 622.146 421.231 626.089 419.224C631.955 416.239 637.433 415.413 640.939 415.173" stroke="#39424E" stroke-width="1.35067" stroke-miterlimit="10" stroke-linecap="round"/>
<path d="M615.286 398.97C616.465 398.359 617.88 397.494 619.337 396.27C620.445 395.338 621.336 394.405 622.036 393.569" stroke="#39424E" stroke-width="1.35067" stroke-miterlimit="10" stroke-linecap="round"/>
<path d="M623.388 370.615C624.451 369.415 626.02 368.889 627.439 369.264C629.343 369.767 630.021 371.637 630.137 371.965C631.136 374.712 628.925 377.216 628.789 377.364C626.835 379.511 624.035 379.321 623.677 379.292" stroke="#39424E" stroke-width="1.35067" stroke-miterlimit="10" stroke-linecap="round"/>
<path d="M592.172 357.682C591.866 356.118 590.572 355.033 589.202 355.044C587.673 355.056 586.788 356.433 586.728 356.529" stroke="#39424E" stroke-width="1.35067" stroke-miterlimit="10" stroke-linecap="round"/>
<path d="M611.176 475.178C611.97 475.896 613.026 477.01 613.945 478.59C614.748 479.97 615.184 481.256 615.428 482.218" fill="#E7EEEF"/>
<path d="M611.176 475.178C611.97 475.896 613.026 477.01 613.945 478.59C614.748 479.97 615.184 481.256 615.428 482.218" stroke="#39424E" stroke-width="1.35067" stroke-miterlimit="10" stroke-linecap="round"/>
<path d="M616.635 455.723C620.942 440.535 627.43 429.483 633.493 426.048C636.758 424.197 639.925 423.911 639.925 423.911C644.973 423.451 648.934 425.781 650.563 426.879" stroke="#39424E" stroke-width="1.35067" stroke-miterlimit="10" stroke-linecap="round"/>
<path d="M647.427 470.617L652.872 457.477" stroke="#39424E" stroke-width="1.35067" stroke-miterlimit="10" stroke-linecap="round"/>
<path d="M359.122 222.342C359.122 291.445 303.102 347.464 234 347.464C164.897 347.464 108.877 291.445 108.877 222.342C108.877 153.24 164.897 97.2197 234 97.2197C303.102 97.2197 359.122 153.24 359.122 222.342Z" stroke="#39424E" stroke-width="1.35067" stroke-miterlimit="10" stroke-linecap="round"/>
<path d="M196.625 185.971C194.762 189.839 195.442 193.806 195.966 196.858C196.693 201.098 197.722 201.106 197.945 204.777C198.172 208.533 197.156 209.581 197.945 212.034C198.634 214.177 200.064 215.361 202.893 217.642C207.646 221.471 209.6 221.21 213.78 224.899C215.609 226.514 216.968 227.737 218.069 229.847C219.097 231.822 219.362 233.535 219.718 238.426C220.374 247.423 219.857 246.782 220.377 249.311C221.492 254.719 223.265 254.779 224.006 259.869C224.225 261.367 224.729 265.107 223.348 269.435C222.43 272.303 221.088 274.097 218.398 277.682C216.004 280.878 214.34 283.097 211.472 285.271C207.592 288.21 206.453 287.319 202.893 290.219C201.549 291.314 198.702 293.689 196.956 297.806C196.241 299.493 194.528 303.533 195.966 307.703C196.126 308.169 196.318 308.61 199.264 312.653C203.932 319.053 204.628 319.558 205.204 319.91C209.098 322.29 213.524 321.291 213.78 321.229C217.241 320.394 217.246 318.499 222.357 315.621C226.378 313.357 229.913 312.541 230.934 312.322C235.876 311.266 236.494 312.571 240.832 311.663C246.573 310.458 250.542 307.11 251.718 306.054C255.669 302.501 254.709 300.834 258.646 297.806C260.358 296.49 260.149 297.106 267.224 293.518C273.116 290.53 273.164 290.153 275.801 289.229C279.32 287.998 280.272 288.307 282.728 286.921C284.876 285.707 286.141 284.345 288.006 282.301C291.565 278.405 291.148 277.335 294.604 273.394C297.61 269.967 298.876 269.693 298.893 268.115C298.916 265.99 296.638 264.31 292.296 261.187C287.48 257.726 286.07 257.778 285.368 255.91C284.449 253.467 286.424 252.227 288.006 246.342C288.768 243.509 289.868 239.431 288.996 234.797C288.277 230.97 287 230.93 286.028 226.219C285.412 223.238 285.866 222.979 285.368 217.971C284.842 212.694 284.58 210.054 283.388 207.745C280.885 202.891 276.385 200.755 275.801 200.487C271.506 198.521 270.292 200.443 266.233 198.507C262.86 196.898 259.369 193.503 258.317 189.271C257.506 186.013 258.805 184.929 257.654 183.002C255.808 179.902 250.688 179.766 246.44 179.703C236.758 179.562 235.425 182.53 228.296 181.682C222.858 181.037 223.436 179.286 216.749 178.385C212.682 177.834 207.024 177.151 201.904 180.363C200.792 181.061 198.18 182.746 196.625 185.971Z" fill="#32C766"/>
<path d="M242.481 169.806C240.875 168.146 240.247 165.022 241.491 163.209C242.891 161.167 245.47 162.517 250.73 160.569C253.593 159.509 255.587 158.086 257.657 156.611C262.501 153.157 262.022 151.879 264.914 150.673C269.03 148.955 270.471 151.347 274.811 149.682C278.014 148.454 277.57 147.019 282.398 144.074C285.013 142.479 287.219 141.134 290.317 140.777C292.737 140.497 294.898 141.029 299.225 142.095C303.938 143.258 304.391 143.918 306.481 143.745C309.943 143.458 312.377 141.343 313.409 140.445C317.587 136.815 318.469 131.89 318.69 130.243C327.095 137.998 346.154 157.677 354.817 189.707C362.455 217.954 358.17 241.607 355.405 252.719C353.457 250.821 351.051 249.87 349.367 250.631C347.103 251.657 346.831 255.467 346.73 256.899C346.509 260.003 347.554 260.997 346.73 262.177C345.51 263.922 341.73 263.919 339.141 262.507C336.638 261.143 334.733 258.178 335.182 255.579C335.593 253.206 337.606 253.229 338.811 250.301C339.814 247.866 339.834 244.417 338.151 242.054C336.899 240.297 334.678 239.562 330.233 238.095C326.161 236.75 325.679 237.175 324.295 236.115C321.457 233.941 322.531 231.421 320.009 229.187C317.483 226.957 312.502 226.019 310.11 228.529C308.273 230.455 308.357 234.009 309.781 236.115C310.97 237.877 312.302 237.454 315.389 239.745C317.206 241.094 320.058 243.211 319.677 245.353C319.406 246.879 317.522 248.258 315.719 248.322C312.909 248.422 312.427 245.253 308.79 244.363C305.785 243.629 304.927 245.503 301.862 244.693C299.477 244.062 297.219 242.191 296.254 239.745C295.17 236.994 296.077 234.423 296.914 232.158C298.506 227.851 300.231 227.847 302.522 223.579C303.506 221.749 305.91 217.271 305.162 211.703C304.923 209.934 304.414 206.142 301.533 203.455C298.49 200.619 295.573 201.598 293.615 198.507C293.366 198.114 291.689 195.377 292.955 192.899C293.802 191.243 295.777 190.074 297.574 190.261C300.279 190.539 300.858 193.705 302.851 193.558C304.731 193.422 306.171 190.474 306.481 188.281C306.969 184.839 304.806 182.351 304.502 182.013C302.842 180.167 300.291 179.097 297.903 179.374C294.767 179.738 294.642 182.11 290.977 183.333C287.597 184.459 283.198 183.945 281.738 181.682C281.002 180.539 281.695 180.005 281.079 177.723C280.162 174.331 277.754 172.293 277.119 171.786C275.69 170.642 273.019 168.507 270.193 169.477C267.789 170.299 265.897 173.15 266.563 174.755C267.485 176.965 272.65 175.331 274.151 178.054C275.23 180.007 273.647 182.802 273.162 183.663C272.611 184.637 271.301 186.953 269.405 186.955C267.633 186.957 266.371 184.938 265.574 183.663C263.953 181.066 264.563 179.925 263.265 177.063C262.578 175.551 261.285 172.691 258.646 171.455C256.509 170.453 255.546 171.486 250.398 171.455C246.221 171.433 244.01 171.389 242.481 169.806Z" fill="#32C766"/>
<path d="M422.673 225.296C422.673 328.093 339.341 411.425 236.544 411.425C133.749 411.425 50.4158 328.093 50.4158 225.296C50.4158 122.5 133.749 39.1677 236.544 39.1677C339.341 39.1677 422.673 122.5 422.673 225.296Z" stroke="#32C766" stroke-width="1.33333" stroke-miterlimit="10" stroke-linecap="round" stroke-dasharray="6.67 6.67"/>
<path d="M129.536 153.412C133.082 150.757 136.292 149.906 138.148 149.589C141.15 149.073 142.319 149.654 142.767 149.918C145.11 151.301 145.376 154.454 145.406 154.868C145.599 157.612 144.006 157.985 143.756 160.805C143.462 164.141 145.603 164.628 146.064 169.052C146.179 170.15 146.45 173.046 145.075 175.981C144.33 177.577 143.814 177.652 140.456 181.589C138.092 184.364 136.9 185.773 136.499 186.868C135.539 189.473 135.655 192.842 137.159 195.444C138.45 197.677 139.616 197.356 140.456 199.402C141.567 202.102 139.828 203.358 140.456 206.33C141.016 208.976 142.95 210.614 146.064 213.26C150.128 216.706 151.306 216.022 152.664 218.208C155.311 222.466 152.858 228.317 152.664 228.765C150.939 232.728 148.828 232.181 147.386 236.021C145.768 240.322 147.818 242.602 145.735 244.929C145.062 245.682 143.196 246.312 139.467 247.568C135.335 248.961 134.642 248.89 133.53 249.878C131.192 251.948 130.939 255.188 130.891 255.816C130.56 260.037 133.228 260.91 133.53 265.384C133.587 266.233 133.951 271.622 130.231 274.289C126.271 277.128 120.898 274.578 120.667 274.465C115.568 263.608 104.234 235.582 110.436 200.392C114.25 178.757 123.223 162.762 129.536 153.412Z" fill="#32C766"/>
<path d="M129.536 153.412C133.082 150.757 136.292 149.906 138.148 149.589C141.15 149.073 142.319 149.654 142.767 149.918C145.11 151.301 145.376 154.454 145.406 154.868C145.599 157.612 144.006 157.985 143.756 160.805C143.462 164.141 145.603 164.628 146.064 169.052C146.179 170.15 146.45 173.046 145.075 175.981C144.33 177.577 143.814 177.652 140.456 181.589C138.092 184.364 136.9 185.773 136.499 186.868C135.539 189.473 135.655 192.842 137.159 195.444C138.45 197.677 139.616 197.356 140.456 199.402C141.567 202.102 139.828 203.358 140.456 206.33C141.016 208.976 142.95 210.614 146.064 213.26C150.128 216.706 151.306 216.022 152.664 218.208C155.311 222.466 152.858 228.317 152.664 228.765C150.939 232.728 148.828 232.181 147.386 236.021C145.768 240.322 147.818 242.602 145.735 244.929C145.062 245.682 143.196 246.312 139.467 247.568C135.335 248.961 134.642 248.89 133.53 249.878C131.192 251.948 130.939 255.188 130.891 255.816C130.56 260.037 133.228 260.91 133.53 265.384C133.587 266.233 133.951 271.622 130.231 274.289C126.271 277.128 120.898 274.578 120.667 274.465C115.568 263.608 104.234 235.582 110.436 200.392C114.25 178.757 123.223 162.762 129.536 153.412Z" stroke="#39424E" stroke-width="1.33333" stroke-miterlimit="10"/>
<path d="M174.555 111.925C175.321 113.566 176.599 115.533 178.725 116.269C180.131 116.755 180.816 116.33 184.004 116.269C187.883 116.195 188.017 116.806 190.601 116.599C191.495 116.527 192.267 116.393 197.529 114.619C204.135 112.397 204.192 112.181 205.117 112.31C208.221 112.743 208.101 115.233 213.035 117.589C214.665 118.367 217.015 119.455 219.963 119.238C222.252 119.069 222.323 118.302 225.571 117.589C229.836 116.65 230.704 117.755 232.828 116.599C234.965 115.437 236.725 112.883 236.788 110.331C236.852 107.663 235.016 106.869 234.148 103.402C233.487 100.762 233.843 98.3872 234.245 96.7952C226.731 96.7298 217.191 97.3405 206.436 99.7738C192.889 102.842 182.136 107.733 174.555 111.925Z" fill="#32C766"/>
<path d="M174.555 111.925C175.321 113.566 176.599 115.533 178.725 116.269C180.131 116.755 180.816 116.33 184.004 116.269C187.883 116.195 188.017 116.806 190.601 116.599C191.495 116.527 192.267 116.393 197.529 114.619C204.135 112.397 204.192 112.181 205.117 112.31C208.221 112.743 208.101 115.233 213.035 117.589C214.665 118.367 217.015 119.455 219.963 119.238C222.252 119.069 222.323 118.302 225.571 117.589C229.836 116.65 230.704 117.755 232.828 116.599C234.965 115.437 236.725 112.883 236.788 110.331C236.852 107.663 235.016 106.869 234.148 103.402C233.487 100.762 233.843 98.3872 234.245 96.7952C226.731 96.7298 217.191 97.3405 206.436 99.7738C192.889 102.842 182.136 107.733 174.555 111.925Z" stroke="#39424E" stroke-width="1.33333" stroke-miterlimit="10"/>
<path d="M246.984 97.4376C247.875 98.9856 248.764 100.535 249.654 102.083C247.614 105.687 248.46 107.075 248.664 107.362C250.108 109.419 255.578 108.152 257.57 107.691C260.603 106.99 261.442 106.175 263.839 106.372C264.803 106.452 266.662 106.747 268.456 108.02C269.523 108.778 271.184 109.958 271.096 111.32C270.964 113.352 267.111 113.324 266.148 115.939C265.328 118.164 266.968 121.308 269.118 122.867C271.712 124.75 273.16 122.95 278.024 124.518C281.786 125.728 282.524 127.322 285.942 127.486C287.166 127.544 288.956 127.631 290.56 126.496C292.787 124.92 293.851 121.563 292.87 119.239C291.882 116.896 289.476 117.163 287.922 114.62C286.702 112.624 286.846 110.278 287.2 108.527C282.662 106.283 277.28 104.01 271.096 102.083C261.966 99.2416 253.699 97.9709 246.984 97.4376Z" fill="#32C766"/>
<path d="M246.984 97.4376C247.875 98.9856 248.764 100.535 249.654 102.083C247.614 105.687 248.46 107.075 248.664 107.362C250.108 109.419 255.578 108.152 257.57 107.691C260.603 106.99 261.442 106.175 263.839 106.372C264.803 106.452 266.662 106.747 268.456 108.02C269.523 108.778 271.184 109.958 271.096 111.32C270.964 113.352 267.111 113.324 266.148 115.939C265.328 118.164 266.968 121.308 269.118 122.867C271.712 124.75 273.16 122.95 278.024 124.518C281.786 125.728 282.524 127.322 285.942 127.486C287.166 127.544 288.956 127.631 290.56 126.496C292.787 124.92 293.851 121.563 292.87 119.239C291.882 116.896 289.476 117.163 287.922 114.62C286.702 112.624 286.846 110.278 287.2 108.527C282.662 106.283 277.28 104.01 271.096 102.083C261.966 99.2416 253.699 97.9709 246.984 97.4376Z" stroke="#39424E" stroke-width="1.33333" stroke-miterlimit="10"/>
<path d="M196.87 185.547C195.007 189.415 195.686 193.382 196.21 196.434C196.938 200.674 197.967 200.682 198.188 204.352C198.416 208.11 197.399 209.156 198.188 211.61C198.879 213.752 200.307 214.936 203.138 217.218C207.89 221.047 209.843 220.786 214.024 224.475C215.852 226.09 217.212 227.312 218.312 229.423C219.342 231.398 219.607 233.111 219.962 238.002C220.619 246.999 220.102 246.359 220.622 248.888C221.736 254.295 223.508 254.355 224.251 259.444C224.47 260.943 224.974 264.684 223.591 269.012C222.675 271.88 221.331 273.674 218.643 277.259C216.247 280.454 214.584 282.672 211.715 284.847C207.836 287.786 206.698 286.895 203.138 289.795C201.794 290.89 198.946 293.264 197.199 297.383C196.484 299.068 194.771 303.11 196.21 307.279C196.371 307.746 196.562 308.186 199.508 312.228C204.175 318.628 204.871 319.134 205.447 319.486C209.343 321.866 213.767 320.867 214.024 320.804C217.486 319.97 217.49 318.075 222.602 315.196C226.623 312.932 230.156 312.116 231.178 311.898C236.12 310.842 236.736 312.147 241.075 311.239C246.818 310.034 250.787 306.686 251.962 305.631C255.912 302.076 254.954 300.41 258.891 297.383C260.602 296.067 260.394 296.682 267.467 293.094C273.359 290.106 273.408 289.728 276.046 288.804C279.564 287.574 280.515 287.883 282.972 286.496C285.12 285.283 286.384 283.922 288.251 281.878C291.808 277.98 291.391 276.911 294.848 272.97C297.855 269.543 299.12 269.27 299.138 267.691C299.16 265.566 296.883 263.886 292.54 260.764C287.723 257.302 286.314 257.355 285.612 255.486C284.694 253.043 286.667 251.803 288.251 245.918C289.012 243.084 290.112 239.007 289.24 234.372C288.522 230.547 287.244 230.506 286.272 225.795C285.656 222.814 286.111 222.555 285.612 217.547C285.087 212.27 284.824 209.63 283.632 207.32C281.13 202.467 276.63 200.331 276.046 200.063C271.751 198.096 270.535 200.019 266.478 198.083C263.104 196.474 259.614 193.079 258.56 188.847C257.75 185.588 259.05 184.504 257.899 182.578C256.052 179.478 250.932 179.342 246.683 179.279C237.003 179.138 235.67 182.107 228.54 181.259C223.102 180.612 223.679 178.862 216.994 177.96C212.926 177.411 207.267 176.727 202.148 179.939C201.036 180.636 198.423 182.322 196.87 185.547Z" stroke="#39424E" stroke-width="1.33333" stroke-miterlimit="10"/>
<path d="M261.53 317.176C259.214 315.116 259.106 311.788 259.881 309.589C260.975 306.478 264.001 305.148 265.159 304.641C268.609 303.125 269.971 304.564 272.086 302.99C274.531 301.17 273.517 298.644 276.046 297.052C277.83 295.929 280.551 295.794 281.654 297.052C282.439 297.948 282.169 299.282 281.654 301.67C281.225 303.654 280.669 306.228 278.683 308.928C277.297 310.818 276.975 310.368 273.406 313.877C270.293 316.937 270.239 317.573 268.787 318.165C266.877 318.945 263.757 319.157 261.53 317.176Z" fill="#B7C9CC"/>
<path d="M261.53 317.176C259.214 315.116 259.106 311.788 259.881 309.589C260.975 306.478 264.001 305.148 265.159 304.641C268.609 303.125 269.971 304.564 272.086 302.99C274.531 301.17 273.517 298.644 276.046 297.052C277.83 295.929 280.551 295.794 281.654 297.052C282.439 297.948 282.169 299.282 281.654 301.67C281.225 303.654 280.669 306.228 278.683 308.928C277.297 310.818 276.975 310.368 273.406 313.877C270.293 316.937 270.239 317.573 268.787 318.165C266.877 318.945 263.757 319.157 261.53 317.176Z" stroke="#39424E" stroke-width="1.33333" stroke-miterlimit="10"/>
<path d="M242.725 169.383C241.12 167.722 240.492 164.598 241.736 162.784C243.136 160.744 245.715 162.092 250.973 160.144C253.837 159.084 255.832 157.662 257.901 156.187C262.745 152.732 262.267 151.455 265.159 150.248C269.275 148.531 270.715 150.923 275.055 149.259C278.257 148.03 277.815 146.595 282.641 143.65C285.257 142.056 287.464 140.71 290.56 140.352C292.979 140.072 295.143 140.604 299.468 141.671C304.183 142.834 304.635 143.494 306.725 143.32C310.187 143.034 312.62 140.919 313.653 140.022C317.832 136.391 318.713 131.467 318.933 129.819C327.34 137.574 346.399 157.252 355.061 189.283C362.699 217.53 358.415 241.183 355.648 252.295C353.699 250.396 351.296 249.446 349.612 250.207C347.348 251.232 347.076 255.043 346.973 256.475C346.752 259.58 347.799 260.572 346.973 261.754C345.753 263.498 341.975 263.495 339.385 262.083C336.883 260.719 334.976 257.754 335.424 255.155C335.836 252.782 337.849 252.804 339.055 249.878C340.059 247.442 340.079 243.994 338.396 241.631C337.143 239.872 334.92 239.139 330.476 237.671C326.405 236.326 325.921 236.751 324.54 235.691C321.699 233.518 322.776 230.996 320.252 228.764C317.728 226.532 312.745 225.595 310.355 228.104C308.517 230.032 308.601 233.584 310.025 235.691C311.213 237.454 312.547 237.03 315.633 239.32C317.449 240.67 320.303 242.788 319.92 244.928C319.649 246.455 317.765 247.835 315.963 247.898C313.152 247.998 312.672 244.828 309.033 243.939C306.029 243.204 305.172 245.079 302.107 244.268C299.721 243.638 297.464 241.768 296.499 239.32C295.415 236.57 296.32 233.999 297.159 231.734C298.749 227.427 300.476 227.423 302.767 223.155C303.751 221.326 306.153 216.847 305.407 211.279C305.168 209.51 304.659 205.718 301.777 203.031C298.735 200.195 295.817 201.174 293.86 198.083C293.611 197.69 291.933 194.952 293.197 192.475C294.047 190.819 296.021 189.65 297.817 189.836C300.523 190.115 301.101 193.28 303.096 193.135C304.976 192.999 306.415 190.05 306.725 187.856C307.213 184.415 305.051 181.927 304.747 181.588C303.087 179.743 300.536 178.672 298.148 178.95C295.012 179.314 294.885 181.687 291.22 182.908C287.841 184.035 283.441 183.522 281.983 181.259C281.247 180.115 281.94 179.58 281.323 177.299C280.407 173.907 277.999 171.868 277.364 171.362C275.933 170.219 273.264 168.083 270.436 169.052C268.032 169.875 266.14 172.727 266.808 174.331C267.729 176.54 272.895 174.907 274.396 177.631C275.472 179.583 273.892 182.378 273.407 183.239C272.856 184.212 271.545 186.528 269.649 186.531C267.877 186.532 266.616 184.514 265.817 183.239C264.196 180.643 264.805 179.5 263.509 176.64C262.823 175.127 261.528 172.268 258.891 171.031C256.752 170.028 255.789 171.062 250.641 171.031C246.465 171.008 244.253 170.964 242.725 169.383Z" stroke="#39424E" stroke-width="1.33333" stroke-miterlimit="10"/>
<path d="M343.204 387.269C343.276 391.229 343.122 395.141 342.748 398.999C342.672 399.788 342.275 400.516 341.654 401.012C341.604 401.052 341.551 401.089 341.498 401.129C338.468 403.463 335.282 405.636 331.932 407.652C328.56 409.68 325.118 411.496 321.622 413.093C321.572 413.121 321.519 413.143 321.47 413.167C321.454 413.177 321.434 413.185 321.412 413.195C320.715 413.491 319.931 413.508 319.22 413.241C319.152 413.213 319.08 413.185 319.012 413.155C319.01 413.155 319.007 413.155 319.003 413.152C315.446 411.679 311.935 409.989 308.486 408.08C305.063 406.187 301.794 404.131 298.68 401.908C298.626 401.873 298.571 401.837 298.52 401.797C297.887 401.324 297.462 400.612 297.358 399.827C296.843 395.989 296.547 392.084 296.474 388.123C296.4 384.192 296.554 380.313 296.918 376.491C296.927 376.383 296.935 376.275 296.95 376.168C297.046 375.507 297.371 374.895 297.86 374.437C297.863 374.431 297.87 374.427 297.874 374.427C298 374.328 298.124 374.232 298.251 374.137C301.282 371.811 304.468 369.636 307.814 367.62C311.23 365.563 314.716 363.729 318.256 362.113C318.3 362.092 318.347 362.075 318.394 362.053C319.018 361.805 319.695 361.791 320.318 362.005C320.331 362.008 320.343 362.011 320.355 362.017C320.43 362.047 320.504 362.077 320.579 362.111C324.15 363.583 327.67 365.28 331.122 367.191C334.554 369.091 337.836 371.161 340.958 373.385C341.067 373.459 341.176 373.536 341.286 373.619C341.292 373.619 341.299 373.625 341.306 373.635C341.823 374.073 342.17 374.676 342.292 375.34C342.311 375.448 342.324 375.555 342.336 375.663C342.84 379.469 343.131 383.341 343.204 387.269Z" fill="#E7EEEF"/>
<path d="M343.204 387.269C343.276 391.229 343.122 395.141 342.748 398.999C342.672 399.788 342.275 400.516 341.654 401.012C341.604 401.052 341.551 401.089 341.498 401.129C338.468 403.463 335.282 405.636 331.932 407.652C328.56 409.68 325.118 411.496 321.622 413.093C321.572 413.121 321.519 413.143 321.47 413.167C321.454 413.177 321.434 413.185 321.412 413.195C320.715 413.491 319.931 413.508 319.22 413.241C319.152 413.213 319.08 413.185 319.012 413.155C319.01 413.155 319.007 413.155 319.003 413.152C315.446 411.679 311.935 409.989 308.486 408.08C305.063 406.187 301.794 404.131 298.68 401.908C298.626 401.873 298.571 401.837 298.52 401.797C297.887 401.324 297.462 400.612 297.358 399.827C296.843 395.989 296.547 392.084 296.474 388.123C296.4 384.192 296.554 380.313 296.918 376.491C296.927 376.383 296.935 376.275 296.95 376.168C297.046 375.507 297.371 374.895 297.86 374.437C297.863 374.431 297.87 374.427 297.874 374.427C298 374.328 298.124 374.232 298.251 374.137C301.282 371.811 304.468 369.636 307.814 367.62C311.23 365.563 314.716 363.729 318.256 362.113C318.3 362.092 318.347 362.075 318.394 362.053C319.018 361.805 319.695 361.791 320.318 362.005C320.331 362.008 320.343 362.011 320.355 362.017C320.43 362.047 320.504 362.077 320.579 362.111C324.15 363.583 327.67 365.28 331.122 367.191C334.554 369.091 337.836 371.161 340.958 373.385C341.067 373.459 341.176 373.536 341.286 373.619C341.292 373.619 341.299 373.625 341.306 373.635C341.823 374.073 342.17 374.676 342.292 375.34C342.311 375.448 342.324 375.555 342.336 375.663C342.84 379.469 343.131 383.341 343.204 387.269Z" stroke="#B7C9CC" stroke-width="1.40267" stroke-miterlimit="10" stroke-linecap="round"/>
<path d="M503.641 250.352L461.406 274.486C454.417 278.48 445.829 278.44 438.875 274.384L396.858 249.874C393.459 247.892 391.377 244.246 391.393 240.31L391.641 185.018C391.659 181.084 393.775 177.457 397.191 175.504L445.199 148.073C448.615 146.12 452.815 146.14 456.214 148.122L503.974 175.982C507.374 177.965 509.457 181.61 509.439 185.546L509.191 240.837C509.173 244.773 507.058 248.4 503.641 250.352Z" fill="white"/>
<path d="M503.641 250.352L461.406 274.486C454.417 278.48 445.829 278.44 438.875 274.384L396.858 249.874C393.459 247.892 391.377 244.246 391.393 240.31L391.641 185.018C391.659 181.084 393.775 177.457 397.191 175.504L445.199 148.073C448.615 146.12 452.815 146.14 456.214 148.122L503.974 175.982C507.374 177.965 509.457 181.61 509.439 185.546L509.191 240.837C509.173 244.773 507.058 248.4 503.641 250.352Z" stroke="#39424E" stroke-width="1.33333" stroke-miterlimit="10" stroke-linecap="round"/>
<path d="M435.967 216.926C436.697 217.839 439.83 221.974 439.082 227.571C438.659 230.734 437.178 232.994 436.302 234.13C441.63 247.839 446.957 261.547 452.285 275.255C458.709 261.044 465.13 246.835 471.551 232.624C470.493 231.602 469.321 230.222 468.354 228.43C465.303 222.776 466.478 217.084 466.994 215.098C464.901 216.62 460.059 219.71 453.078 220.439C444.558 221.328 438.163 218.146 435.967 216.926Z" fill="#F3F7F7"/>
<path d="M435.967 216.926C436.697 217.839 439.83 221.974 439.082 227.571C438.659 230.734 437.178 232.994 436.302 234.13C441.63 247.839 446.957 261.547 452.285 275.255C458.709 261.044 465.13 246.835 471.551 232.624C470.493 231.602 469.321 230.222 468.354 228.43C465.303 222.776 466.478 217.084 466.994 215.098C464.901 216.62 460.059 219.71 453.078 220.439C444.558 221.328 438.163 218.146 435.967 216.926Z" stroke="#39424E" stroke-width="0.952" stroke-miterlimit="10" stroke-linecap="round"/>
<path d="M429.358 195.844C429.201 203.043 429.894 206.24 430.277 207.732C431.205 211.344 432.597 216.771 437.447 221.293C439.035 222.771 443.813 227.088 451.054 227.165C452.755 227.184 458.975 227.016 463.743 222.408C466.479 219.763 467.521 216.832 468.709 213.491C469.829 210.343 470.057 207.687 470.547 202.532C470.91 198.708 471.202 195.631 471.103 191.913C470.898 184.26 470.775 179.847 468.162 175.565C464.867 170.171 457.835 165.352 449.501 165.583C441.758 165.796 435.526 170.293 432.366 175.071C429.561 179.309 429.599 184.821 429.358 195.844Z" fill="#F3F7F7"/>
<path d="M429.358 195.844C429.201 203.043 429.894 206.24 430.277 207.732C431.205 211.344 432.597 216.771 437.447 221.293C439.035 222.771 443.813 227.088 451.054 227.165C452.755 227.184 458.975 227.016 463.743 222.408C466.479 219.763 467.521 216.832 468.709 213.491C469.829 210.343 470.057 207.687 470.547 202.532C470.91 198.708 471.202 195.631 471.103 191.913C470.898 184.26 470.775 179.847 468.162 175.565C464.867 170.171 457.835 165.352 449.501 165.583C441.758 165.796 435.526 170.293 432.366 175.071C429.561 179.309 429.599 184.821 429.358 195.844Z" stroke="#39424E" stroke-width="0.952" stroke-miterlimit="10" stroke-linecap="round"/>
<path d="M437.448 232.708C435.705 232.827 433.231 233.046 430.287 233.484C422.848 234.59 415.387 235.754 408.763 240.354C406.253 242.098 402.097 245.566 398.791 251.95C413.904 260.474 429.017 268.999 444.129 277.523C447.609 279.487 451.86 279.507 455.357 277.572C471.412 268.702 487.467 259.832 503.521 250.96C503.103 248.932 502.185 245.872 499.959 242.81C496.227 237.678 491.195 235.702 486.795 233.996C483.572 232.747 478.305 231.162 471.467 231.107C466.401 231.959 460.656 232.644 454.332 232.935C448.144 233.219 442.477 233.074 437.448 232.708Z" fill="#B7C9CC"/>
<path d="M437.448 232.708C435.705 232.827 433.231 233.046 430.287 233.484C422.848 234.59 415.387 235.754 408.763 240.354C406.253 242.098 402.097 245.566 398.791 251.95C413.904 260.474 429.017 268.999 444.129 277.523C447.609 279.487 451.86 279.507 455.357 277.572C471.412 268.702 487.467 259.832 503.521 250.96C503.103 248.932 502.185 245.872 499.959 242.81C496.227 237.678 491.195 235.702 486.795 233.996C483.572 232.747 478.305 231.162 471.467 231.107C466.401 231.959 460.656 232.644 454.332 232.935C448.144 233.219 442.477 233.074 437.448 232.708Z" stroke="#39424E" stroke-width="0.952" stroke-miterlimit="10" stroke-linecap="round"/>
<path d="M428.988 195.03C428.355 195.179 426.732 195.654 425.563 197.115C423.69 199.457 424.552 202.349 424.735 202.895C425.922 206.451 429.676 207.854 430.372 208.102C430.028 206.366 429.726 204.505 429.49 202.529C429.171 199.845 429.023 197.334 428.988 195.03Z" fill="#E7EEEF"/>
<path d="M428.988 195.03C428.355 195.179 426.732 195.654 425.563 197.115C423.69 199.457 424.552 202.349 424.735 202.895C425.922 206.451 429.676 207.854 430.372 208.102C430.028 206.366 429.726 204.505 429.49 202.529C429.171 199.845 429.023 197.334 428.988 195.03Z" stroke="#39424E" stroke-width="0.952" stroke-miterlimit="10" stroke-linecap="round"/>
<path d="M471.072 195.738C471.897 195.762 473.209 195.938 474.106 196.849C476.301 199.076 473.948 203.572 473.738 203.962C472.638 206.01 470.989 207.19 470 207.777C470.437 205.714 470.802 203.364 470.981 200.762C471.101 198.966 471.121 197.284 471.072 195.738Z" fill="#E7EEEF"/>
<path d="M471.072 195.738C471.897 195.762 473.209 195.938 474.106 196.849C476.301 199.076 473.948 203.572 473.738 203.962C472.638 206.01 470.989 207.19 470 207.777C470.437 205.714 470.802 203.364 470.981 200.762C471.101 198.966 471.121 197.284 471.072 195.738Z" stroke="#39424E" stroke-width="0.952" stroke-miterlimit="10" stroke-linecap="round"/>
<path d="M462.915 197.606C462.915 198.555 462.11 199.324 461.118 199.324C460.126 199.324 459.322 198.555 459.322 197.606C459.322 196.656 460.126 195.887 461.118 195.887C462.11 195.887 462.915 196.656 462.915 197.606Z" fill="#39424E"/>
<path d="M441.217 197.606C441.217 198.555 440.412 199.324 439.42 199.324C438.428 199.324 437.624 198.555 437.624 197.606C437.624 196.656 438.428 195.887 439.42 195.887C440.412 195.887 441.217 196.656 441.217 197.606Z" fill="#39424E"/>
<path d="M441.56 212.689C443.274 213.601 447.88 215.746 453.71 214.823C456.678 214.353 458.966 213.246 460.442 212.361" stroke="#39424E" stroke-width="0.952" stroke-miterlimit="10" stroke-linecap="round"/>
<path d="M448.457 217.286C448.625 217.47 449.897 218.814 451.906 218.704C453.765 218.602 454.85 217.333 455.025 217.122" stroke="#39424E" stroke-width="0.952" stroke-miterlimit="10" stroke-linecap="round"/>
<path d="M458.74 193.522C459.256 192.706 460.169 192.242 461.101 192.328C462.321 192.441 462.945 193.444 463.01 193.552" stroke="#39424E" stroke-width="0.952" stroke-miterlimit="10" stroke-linecap="round"/>
<path d="M437.448 193.165C437.521 193.081 438.476 191.983 439.918 192.164C440.976 192.297 441.586 193.029 441.718 193.196" stroke="#39424E" stroke-width="0.952" stroke-miterlimit="10" stroke-linecap="round"/>
<path d="M447.104 206.87C447.539 207.284 448.677 208.255 450.433 208.535C452.945 208.936 454.817 207.62 455.192 207.346" stroke="#39424E" stroke-width="0.952" stroke-miterlimit="10" stroke-linecap="round"/>
<path d="M416.659 238.369C414.769 238.961 412.301 239.965 409.755 241.717C405.207 244.841 402.797 248.694 401.653 250.897" stroke="#B7C9CC" stroke-width="0.952" stroke-miterlimit="10" stroke-linecap="round"/>
<path d="M468.426 167.542C459.168 159.994 447.923 161.451 444.66 161.872C441.399 162.294 430.435 163.716 423.198 173.33C414.19 185.296 418.675 199.711 419.154 201.162C417.799 201.915 406.478 208.466 404.643 221.856C403.367 231.174 407.443 238.252 408.763 240.354C411.908 238.578 416.027 236.63 421.05 235.142C427.508 233.23 433.223 232.738 437.448 232.708C437.743 232.166 438.08 231.46 438.379 230.61C438.679 229.746 438.947 228.727 439.082 227.571C439.34 225.375 439.027 223.567 438.736 222.428C437.494 221.398 436.098 220.036 434.782 218.284C431.771 214.271 430.702 210.222 430.278 207.732C429.423 207.502 427.252 206.791 425.7 204.76C425.396 204.36 422.796 200.958 424.486 198.596C425.434 197.271 427.406 196.735 429.423 197.027C429.447 195.995 429.471 194.96 429.495 193.928C432.454 192.754 436.091 190.986 439.874 188.298C445.552 184.264 449.259 179.792 451.519 176.547C453.727 179.748 456.7 183.5 460.632 187.319C464.319 190.898 467.94 193.654 471.07 195.738C471.898 195.762 473.208 195.939 474.107 196.848C476.3 199.075 473.95 203.571 473.736 203.962C472.666 205.956 471.064 207.142 470 207.778C469.731 209.692 469.243 211.972 468.36 214.46C467.751 216.179 467.06 217.691 466.376 218.991C466.242 220.942 466.291 224.614 468.354 228.43C469.131 229.868 470.026 231.016 470.846 231.903C473.692 231.619 477.932 231.531 482.868 232.695C487.114 233.698 490.442 235.288 492.731 236.611C493.534 235.168 498.828 225.243 494.562 213.531C490.266 201.742 479.719 197.564 478.186 196.987C480.276 185.626 476.666 174.262 468.426 167.542Z" fill="#0E141E"/>
<path d="M468.427 196.88C468.427 201.051 465.046 204.432 460.875 204.432C456.704 204.432 453.323 201.051 453.323 196.88C453.323 192.708 456.704 189.328 460.875 189.328C465.046 189.328 468.427 192.708 468.427 196.88Z" stroke="#39424E" stroke-width="0.952" stroke-miterlimit="10" stroke-linecap="round"/>
<path d="M447.137 196.88C447.137 201.051 443.755 204.432 439.583 204.432C435.413 204.432 432.031 201.051 432.031 196.88C432.031 192.708 435.413 189.328 439.583 189.328C443.755 189.328 447.137 192.708 447.137 196.88Z" stroke="#39424E" stroke-width="0.952" stroke-miterlimit="10" stroke-linecap="round"/>
<path d="M447.137 196.88H453.323" stroke="#39424E" stroke-width="0.952" stroke-miterlimit="10" stroke-linecap="round"/>
<path d="M453.232 233.008C453.292 234.919 453.353 236.827 453.414 238.737" stroke="#39424E" stroke-width="0.952" stroke-miterlimit="10" stroke-linecap="round"/>
<path d="M448.712 233.008C448.772 234.919 448.833 236.827 448.893 238.737" stroke="#39424E" stroke-width="0.952" stroke-miterlimit="10" stroke-linecap="round"/>
<path d="M443.974 233.008C444.021 234.919 444.069 236.827 444.117 238.737" stroke="#39424E" stroke-width="0.952" stroke-miterlimit="10" stroke-linecap="round"/>
<path d="M439.583 233.008C439.631 234.919 439.678 236.827 439.726 238.737" stroke="#39424E" stroke-width="0.952" stroke-miterlimit="10" stroke-linecap="round"/>
<path d="M457.751 233.008C457.811 234.919 457.873 236.827 457.934 238.737" stroke="#39424E" stroke-width="0.952" stroke-miterlimit="10" stroke-linecap="round"/>
<path d="M462.243 232.294C462.303 234.205 462.365 236.113 462.425 238.024" stroke="#39424E" stroke-width="0.952" stroke-miterlimit="10" stroke-linecap="round"/>
<path d="M466.73 232.294C466.762 234.205 466.797 236.113 466.829 238.024" stroke="#39424E" stroke-width="0.952" stroke-miterlimit="10" stroke-linecap="round"/>
<path d="M433.268 195.69C433.162 196.3 433.083 197.233 433.348 198.308C433.908 200.594 435.607 201.842 436.123 202.193" stroke="#B7C9CC" stroke-width="0.952" stroke-miterlimit="10" stroke-linecap="round"/>
<path d="M454.652 195.69C454.546 196.3 454.467 197.233 454.732 198.308C455.292 200.594 456.991 201.842 457.507 202.193" stroke="#B7C9CC" stroke-width="0.952" stroke-miterlimit="10" stroke-linecap="round"/>
<path d="M437.788 203.223C438.214 203.255 438.641 203.289 439.068 203.321" stroke="#B7C9CC" stroke-width="0.952" stroke-miterlimit="10" stroke-linecap="round"/>
<path d="M449.76 200.448C449.84 201.928 449.919 203.408 449.999 204.888" stroke="#B7C9CC" stroke-width="0.952" stroke-miterlimit="10" stroke-linecap="round"/>
<g opacity="0.210007">
<path d="M438.832 228.896C440.736 229.757 443.448 230.66 446.748 230.737C456.191 230.959 462.556 224.248 463.796 222.887C462.263 224.207 459.511 226.175 455.629 227.011C446.785 228.915 439.767 223.283 438.737 222.428C438.768 224.585 438.801 226.74 438.832 228.896Z" fill="#39424E"/>
</g>
<path d="M419.075 191.884C418.981 189.656 419.115 186.603 420.103 183.161C421.957 176.724 425.747 172.577 427.797 170.633" stroke="#E7EEEF" stroke-width="0.952" stroke-miterlimit="10" stroke-linecap="round"/>
<path d="M419.312 202.985C417.948 203.741 416.231 204.857 414.483 206.477C412.711 208.117 411.452 209.759 410.591 211.073" stroke="#E7EEEF" stroke-width="0.952" stroke-miterlimit="10" stroke-linecap="round"/>
<path d="M429.7 168.889C430.414 168.415 431.127 167.937 431.84 167.463" stroke="#E7EEEF" stroke-width="0.952" stroke-miterlimit="10" stroke-linecap="round"/>
<path d="M161.586 102.572L116.607 128.272C112.173 130.806 106.725 130.782 102.313 128.209L57.5647 102.106C54.7074 100.438 52.9554 97.3744 52.9701 94.0637L53.2154 39.3557C53.2301 36.0464 55.0087 32.9957 57.8834 31.3544L105.385 4.21171C108.257 2.57037 111.787 2.58637 114.646 4.25437L161.902 31.821C164.762 33.4877 166.513 36.553 166.499 39.8624L166.254 94.5704C166.238 97.8797 164.459 100.93 161.586 102.572Z" fill="white"/>
<path d="M161.586 102.572L116.607 128.272C112.173 130.806 106.725 130.782 102.313 128.209L57.5647 102.106C54.7074 100.438 52.9554 97.3744 52.9701 94.0637L53.2154 39.3557C53.2301 36.0464 55.0087 32.9957 57.8834 31.3544L105.385 4.21171C108.257 2.57037 111.787 2.58637 114.646 4.25437L161.902 31.821C164.762 33.4877 166.513 36.553 166.499 39.8624L166.254 94.5704C166.238 97.8797 164.459 100.93 161.586 102.572Z" stroke="#39424E" stroke-width="1.33333" stroke-miterlimit="10" stroke-linecap="round"/>
<path d="M96.5183 72.7513C98.4463 75.4713 100.414 79.226 99.3316 82.6993C96.373 92.198 73.941 88.8766 72.0476 95.6553C70.193 102.298 88.7463 118.453 109.19 117.841C131.128 117.186 148.686 97.438 146.249 91.7633C144.345 87.33 130.476 92.0566 125.204 84.4433C122.422 80.426 123.382 74.9246 124.553 71.0433C115.209 71.6126 105.864 72.182 96.5183 72.7513Z" fill="#E7EEEF"/>
<path d="M96.5183 72.7513C98.4463 75.4713 100.414 79.226 99.3316 82.6993C96.373 92.198 73.941 88.8766 72.0476 95.6553C70.193 102.298 88.7463 118.453 109.19 117.841C131.128 117.186 148.686 97.438 146.249 91.7633C144.345 87.33 130.476 92.0566 125.204 84.4433C122.422 80.426 123.382 74.9246 124.553 71.0433C115.209 71.6126 105.864 72.182 96.5183 72.7513Z" stroke="#39424E" stroke-width="0.914667" stroke-miterlimit="10" stroke-linecap="round"/>
<path d="M90.5457 53.0508C90.403 59.7788 91.0297 62.7655 91.3763 64.1602C92.2137 67.5362 93.471 72.6068 97.8563 76.8322C99.2897 78.2135 103.607 82.2468 110.151 82.3202C111.687 82.3375 117.308 82.1815 121.618 77.8735C124.09 75.4028 125.03 72.6642 126.103 69.5415C127.115 66.5988 127.323 64.1188 127.764 59.3002C128.092 55.7295 128.356 52.8522 128.267 49.3775C128.106 43.1135 127.967 37.7642 125.61 34.1015C119.851 25.1602 99.747 24.5708 93.263 33.6388C90.887 36.9642 90.7723 42.3268 90.5457 53.0508Z" fill="#E7EEEF"/>
<path d="M90.5457 53.0508C90.403 59.7788 91.0297 62.7655 91.3763 64.1602C92.2137 67.5362 93.471 72.6068 97.8563 76.8322C99.2897 78.2135 103.607 82.2468 110.151 82.3202C111.687 82.3375 117.308 82.1815 121.618 77.8735C124.09 75.4028 125.03 72.6642 126.103 69.5415C127.115 66.5988 127.323 64.1188 127.764 59.3002C128.092 55.7295 128.356 52.8522 128.267 49.3775C128.106 43.1135 127.967 37.7642 125.61 34.1015C119.851 25.1602 99.747 24.5708 93.263 33.6388C90.887 36.9642 90.7723 42.3268 90.5457 53.0508Z" stroke="#39424E" stroke-width="0.914667" stroke-miterlimit="10" stroke-linecap="round"/>
<path d="M85.6276 89.7045C83.7929 89.6205 76.3223 89.4898 69.8436 94.9658C65.3249 98.7858 63.5689 103.407 62.9249 105.479C75.9036 113.051 88.8836 120.622 101.864 128.194C106.254 130.755 111.674 130.791 116.1 128.29C130.628 120.08 145.156 111.87 159.684 103.659C159.013 101.679 157.718 98.7338 155.17 95.8805C150.498 90.6485 144.673 89.1538 142.446 88.7031C136.408 100.46 124.157 107.53 111.478 106.632C94.5796 105.436 86.2009 90.7498 85.6276 89.7045Z" fill="#39424E"/>
<path d="M90.6041 54.1576C90.2841 54.0296 88.4348 53.3296 87.1161 54.2403C85.1188 55.6189 86.2721 59.3456 86.3668 59.6403C87.4401 62.9643 90.8321 64.2749 91.4628 64.5056C91.1228 63.0056 90.8241 61.2576 90.6655 59.2976C90.5108 57.3909 90.5188 55.6603 90.6041 54.1576Z" fill="#E7EEEF"/>
<path d="M90.6041 54.1576C90.2841 54.0296 88.4348 53.3296 87.1161 54.2403C85.1188 55.6189 86.2721 59.3456 86.3668 59.6403C87.4401 62.9643 90.8321 64.2749 91.4628 64.5056C91.1228 63.0056 90.8241 61.2576 90.6655 59.2976C90.5108 57.3909 90.5188 55.6603 90.6041 54.1576Z" stroke="#39424E" stroke-width="0.914667" stroke-miterlimit="10" stroke-linecap="round"/>
<path d="M128.24 52.9531C128.986 52.9744 130.17 53.1411 130.982 53.9904C132.965 56.0704 130.838 60.2717 130.649 60.6384C129.654 62.5517 128.164 63.6531 127.27 64.2037C127.666 62.2757 127.996 60.0784 128.157 57.6477C128.268 55.9691 128.284 54.3971 128.24 52.9531Z" fill="#E7EEEF"/>
<path d="M128.24 52.9531C128.986 52.9744 130.17 53.1411 130.982 53.9904C132.965 56.0704 130.838 60.2717 130.649 60.6384C129.654 62.5517 128.164 63.6531 127.27 64.2037C127.666 62.2757 127.996 60.0784 128.157 57.6477C128.268 55.9691 128.284 54.3971 128.24 52.9531Z" stroke="#39424E" stroke-width="0.914667" stroke-miterlimit="10" stroke-linecap="round"/>
<path d="M120.868 54.6979C120.868 55.5846 120.142 56.3032 119.244 56.3032C118.348 56.3032 117.622 55.5846 117.622 54.6979C117.622 53.8112 118.348 53.0926 119.244 53.0926C120.142 53.0926 120.868 53.8112 120.868 54.6979Z" fill="#39424E"/>
<path d="M101.262 54.6979C101.262 55.5846 100.535 56.3032 99.639 56.3032C98.7417 56.3032 98.015 55.5846 98.015 54.6979C98.015 53.8112 98.7417 53.0926 99.639 53.0926C100.535 53.0926 101.262 53.8112 101.262 54.6979Z" fill="#39424E"/>
<path d="M108.738 73.5533C109.061 73.672 109.553 73.8093 110.194 73.8373C111.053 73.8746 111.77 73.6946 112.184 73.5653" stroke="#39424E" stroke-width="0.914667" stroke-miterlimit="10" stroke-linecap="round"/>
<path d="M117.095 50.8814C117.243 50.7454 117.971 50.1068 119.08 50.1348C120.126 50.1614 120.796 50.7614 120.955 50.9094" stroke="#39424E" stroke-width="0.914667" stroke-miterlimit="10" stroke-linecap="round"/>
<path d="M97.8568 50.5482C97.9888 50.4415 98.7461 49.8495 99.9235 49.9162C100.891 49.9722 101.537 50.4388 101.715 50.5762" stroke="#39424E" stroke-width="0.914667" stroke-miterlimit="10" stroke-linecap="round"/>
<path d="M106.892 63.642C107.075 63.838 107.973 64.77 109.589 64.9113C111.888 65.1126 113.433 63.5273 113.496 63.4606" stroke="#39424E" stroke-width="0.914667" stroke-miterlimit="10" stroke-linecap="round"/>
<path d="M81.5234 92.1381C79.8261 92.6208 77.0328 93.6488 74.2168 95.9101C71.1541 98.3674 69.4954 101.131 68.6794 102.749" stroke="#B7C9CC" stroke-width="0.914667" stroke-miterlimit="10" stroke-linecap="round"/>
<path d="M93.1771 17.6446C91.8557 18.534 84.7224 23.5166 83.1117 32.9713C81.0464 45.0926 89.9331 53.5406 90.6037 54.158C90.5264 52.9486 90.3264 47.95 93.6344 45.326C95.1224 44.1433 96.7744 43.8766 99.1251 43.4953C104.001 42.7046 104.798 44.1393 108.046 43.266C111.982 42.2073 111.944 39.7953 115.594 39.1486C119.152 38.5166 122.168 40.2806 122.916 40.75C126.73 43.1486 128.766 47.9126 128.24 52.9526C128.697 51.9353 129.3 50.422 129.778 48.5273C130.406 46.0446 131.813 40.4833 129.705 35.2046C126.956 28.31 119.717 25.6646 119.026 25.4233C111.465 22.7846 107.16 27.206 100.417 24.2046C96.7477 22.5713 94.4744 19.6833 93.1771 17.6446Z" fill="#39424E"/>
<path d="M109.906 67.1706C109.132 66.6546 108.001 66.096 106.73 66.256C104.198 66.576 103.313 69.4733 101.213 69.4586C100.518 69.4533 99.5342 69.128 98.3529 67.628C98.6182 68.44 99.3422 70.232 101.126 71.3466C103.717 72.9653 107.484 72.488 110.39 70.032C112.096 71.892 114.641 72.672 116.968 72.032C119.768 71.2626 120.948 68.7946 121.114 68.428C119.782 69.504 118.858 69.588 118.256 69.4586C116.91 69.1666 116.898 67.752 114.966 66.7706C114.522 66.5466 113.268 65.932 111.764 66.256C110.885 66.4453 110.257 66.8813 109.906 67.1706Z" fill="#39424E"/>
<path d="M244.715 417.28C244.599 421.66 244.484 426.04 244.368 430.421" stroke="#B7C9CC" stroke-width="1.24933" stroke-miterlimit="10" stroke-linecap="round"/>
<path d="M238.145 424.024C242.525 423.909 246.905 423.793 251.283 423.677" stroke="#B7C9CC" stroke-width="1.24933" stroke-miterlimit="10" stroke-linecap="round"/>
<path d="M7.24217 208.496C7.12617 212.876 7.01151 217.257 6.89551 221.637" stroke="#B7C9CC" stroke-width="1.33333" stroke-miterlimit="10" stroke-linecap="round"/>
<path d="M0.670532 215.24C5.05187 215.125 9.43186 215.009 13.8119 214.894" stroke="#B7C9CC" stroke-width="1.33333" stroke-miterlimit="10" stroke-linecap="round"/>
<path d="M168.973 375.204C168.879 378.763 168.785 382.322 168.693 385.879" stroke="#B7C9CC" stroke-width="1.01467" stroke-miterlimit="10" stroke-linecap="round"/>
<path d="M163.635 380.682C167.194 380.589 170.753 380.494 174.31 380.401" stroke="#B7C9CC" stroke-width="1.01467" stroke-miterlimit="10" stroke-linecap="round"/>
<path d="M33.1445 193.165C33.0872 195.356 33.0299 197.545 32.9712 199.736" stroke="#B7C9CC" stroke-width="1.33333" stroke-miterlimit="10" stroke-linecap="round"/>
<path d="M29.8594 196.538C32.05 196.479 34.2394 196.422 36.43 196.364" stroke="#B7C9CC" stroke-width="1.33333" stroke-miterlimit="10" stroke-linecap="round"/>
<path d="M149.681 368.005C149.681 369.444 148.514 370.611 147.074 370.611C145.636 370.611 144.469 369.444 144.469 368.005C144.469 366.565 145.636 365.399 147.074 365.399C148.514 365.399 149.681 366.565 149.681 368.005Z" stroke="#B7C9CC" stroke-width="1.01467" stroke-miterlimit="10" stroke-linecap="round"/>
<path d="M93.0846 311L60.278 329.747C56.174 332.089 51.1326 332.068 47.0526 329.687L14.4126 310.647C11.826 309.139 10.2393 306.361 10.2526 303.365L10.434 262.787C10.4473 259.791 12.058 257.028 14.6606 255.543L49.8926 235.411C52.4953 233.924 55.6913 233.939 58.2793 235.448L93.3313 255.895C95.9193 257.404 97.5046 260.18 97.4926 263.177L97.31 303.755C97.2966 306.751 95.686 309.513 93.0846 311Z" fill="white"/>
<path d="M93.0846 311L60.278 329.747C56.174 332.089 51.1326 332.068 47.0526 329.687L14.4126 310.647C11.826 309.139 10.2393 306.361 10.2526 303.365L10.434 262.787C10.4473 259.791 12.058 257.028 14.6606 255.543L49.8926 235.411C52.4953 233.924 55.6913 233.939 58.2793 235.448L93.3313 255.895C95.9193 257.404 97.5046 260.18 97.4926 263.177L97.31 303.755C97.2966 306.751 95.686 309.513 93.0846 311Z" stroke="#39424E" stroke-width="1.33333" stroke-miterlimit="10" stroke-linecap="round"/>
<path d="M46.3555 286.607C46.7929 287.663 47.6995 290.251 46.4902 292.231C45.4049 294.006 43.2529 294.412 41.0889 294.899C38.0489 295.583 33.8835 296.714 28.7942 298.69C30.5969 300.483 40.5582 310.048 56.3062 309.943C72.0475 309.839 81.8795 300.15 83.6595 298.331C79.4502 296.454 75.8929 295.462 73.3475 294.899C70.4675 294.262 68.8022 294.098 67.2502 292.758C66.3795 292.006 64.6422 290.011 64.9649 284.867C62.6355 285.63 59.6502 286.38 56.1289 286.742C52.2742 287.135 48.9355 286.943 46.3555 286.607Z" fill="#E7EEEF"/>
<path d="M46.3555 286.607C46.7929 287.663 47.6995 290.251 46.4902 292.231C45.4049 294.006 43.2529 294.412 41.0889 294.899C38.0489 295.583 33.8835 296.714 28.7942 298.69C30.5969 300.483 40.5582 310.048 56.3062 309.943C72.0475 309.839 81.8795 300.15 83.6595 298.331C79.4502 296.454 75.8929 295.462 73.3475 294.899C70.4675 294.262 68.8022 294.098 67.2502 292.758C66.3795 292.006 64.6422 290.011 64.9649 284.867C62.6355 285.63 59.6502 286.38 56.1289 286.742C52.2742 287.135 48.9355 286.943 46.3555 286.607Z" stroke="#39424E" stroke-width="0.702667" stroke-miterlimit="10" stroke-linecap="round"/>
<path d="M38.8581 268.223C38.7434 273.643 39.2487 276.051 39.5274 277.175C40.2021 279.895 41.2167 283.98 44.7487 287.384C45.9034 288.497 49.3834 291.748 54.6554 291.805C55.8927 291.82 60.4221 291.695 63.8941 288.224C65.8861 286.233 66.6447 284.027 67.5087 281.511C68.3234 279.14 68.4914 277.14 68.8474 273.257C69.1114 270.38 69.3261 268.063 69.2527 265.263C69.0941 259.103 69.0167 255.968 67.1101 252.955C64.3381 248.575 58.8594 246.273 53.8447 246.304C49.0967 246.331 43.9074 248.453 41.0487 252.583C38.9941 255.548 39.0367 259.775 38.8581 268.223Z" fill="#E7EEEF"/>
<path d="M38.8581 268.223C38.7434 273.643 39.2487 276.051 39.5274 277.175C40.2021 279.895 41.2167 283.98 44.7487 287.384C45.9034 288.497 49.3834 291.748 54.6554 291.805C55.8927 291.82 60.4221 291.695 63.8941 288.224C65.8861 286.233 66.6447 284.027 67.5087 281.511C68.3234 279.14 68.4914 277.14 68.8474 273.257C69.1114 270.38 69.3261 268.063 69.2527 265.263C69.0941 259.103 69.0167 255.968 67.1101 252.955C64.3381 248.575 58.8594 246.273 53.8447 246.304C49.0967 246.331 43.9074 248.453 41.0487 252.583C38.9941 255.548 39.0367 259.775 38.8581 268.223Z" stroke="#39424E" stroke-width="0.702667" stroke-miterlimit="10" stroke-linecap="round"/>
<path d="M30.6302 297.867C28.7129 298.647 26.3222 299.853 23.8636 301.735C19.6036 305.001 17.1582 308.757 15.8529 311.179C26.2756 317.259 36.6996 323.339 47.1209 329.419C51.2036 331.801 56.2449 331.823 60.3476 329.479C71.4702 323.122 82.5942 316.767 93.7156 310.411C93.3569 309.034 92.6462 306.973 91.1609 304.817C89.8342 302.886 88.4569 301.707 87.5996 300.983C86.4089 299.979 84.5702 298.646 82.0396 297.553C78.8476 299.842 69.8822 305.641 57.0089 305.899C43.3836 306.174 33.7889 300.075 30.6302 297.867Z" fill="#32C766"/>
<path d="M30.6302 297.867C28.7129 298.647 26.3222 299.853 23.8636 301.735C19.6036 305.001 17.1582 308.757 15.8529 311.179C26.2756 317.259 36.6996 323.339 47.1209 329.419C51.2036 331.801 56.2449 331.823 60.3476 329.479C71.4702 323.122 82.5942 316.767 93.7156 310.411C93.3569 309.034 92.6462 306.973 91.1609 304.817C89.8342 302.886 88.4569 301.707 87.5996 300.983C86.4089 299.979 84.5702 298.646 82.0396 297.553C78.8476 299.842 69.8822 305.641 57.0089 305.899C43.3836 306.174 33.7889 300.075 30.6302 297.867Z" fill="#576871"/>
<path d="M30.6302 297.867C28.7129 298.647 26.3222 299.853 23.8636 301.735C19.6036 305.001 17.1582 308.757 15.8529 311.179C26.2756 317.259 36.6996 323.339 47.1209 329.419C51.2036 331.801 56.2449 331.823 60.3476 329.479C71.4702 323.122 82.5942 316.767 93.7156 310.411C93.3569 309.034 92.6462 306.973 91.1609 304.817C89.8342 302.886 88.4569 301.707 87.5996 300.983C86.4089 299.979 84.5702 298.646 82.0396 297.553C78.8476 299.842 69.8822 305.641 57.0089 305.899C43.3836 306.174 33.7889 300.075 30.6302 297.867Z" stroke="#39424E" stroke-width="0.702667" stroke-miterlimit="10" stroke-linecap="round"/>
<path d="M38.9062 269.115C38.5209 269.053 37.4609 268.941 36.5662 269.576C34.9276 270.74 35.4382 273.289 35.4916 273.532C36.1116 276.4 39.4369 277.407 39.5969 277.452C39.3222 276.244 39.0822 274.835 38.9542 273.256C38.8289 271.719 38.8356 270.325 38.9062 269.115Z" fill="#E7EEEF"/>
<path d="M38.9062 269.115C38.5209 269.053 37.4609 268.941 36.5662 269.576C34.9276 270.74 35.4382 273.289 35.4916 273.532C36.1116 276.4 39.4369 277.407 39.5969 277.452C39.3222 276.244 39.0822 274.835 38.9542 273.256C38.8289 271.719 38.8356 270.325 38.9062 269.115Z" stroke="#39424E" stroke-width="0.702667" stroke-miterlimit="10" stroke-linecap="round"/>
<path d="M69.345 268.776C69.8623 268.809 70.713 268.953 71.3876 269.576C72.7636 270.848 72.4583 273.257 71.653 274.728C70.697 276.476 68.937 277.064 68.449 277.208C68.749 275.585 68.9996 273.82 69.1623 271.925C69.2583 270.835 69.3156 269.783 69.345 268.776Z" fill="#E7EEEF"/>
<path d="M69.345 268.776C69.8623 268.809 70.713 268.953 71.3876 269.576C72.7636 270.848 72.4583 273.257 71.653 274.728C70.697 276.476 68.937 277.064 68.449 277.208C68.749 275.585 68.9996 273.82 69.1623 271.925C69.2583 270.835 69.3156 269.783 69.345 268.776Z" stroke="#39424E" stroke-width="0.702667" stroke-miterlimit="10" stroke-linecap="round"/>
<path d="M63.2915 269.55C63.2915 270.264 62.7062 270.844 61.9835 270.844C61.2609 270.844 60.6742 270.264 60.6742 269.55C60.6742 268.835 61.2609 268.255 61.9835 268.255C62.7062 268.255 63.2915 268.835 63.2915 269.55Z" fill="#39424E"/>
<path d="M47.4934 269.55C47.4934 270.264 46.9081 270.844 46.1854 270.844C45.4628 270.844 44.8761 270.264 44.8761 269.55C44.8761 268.835 45.4628 268.255 46.1854 268.255C46.9081 268.255 47.4934 268.835 47.4934 269.55Z" fill="#39424E"/>
<path d="M49.6262 280.994C50.4169 281.478 52.5249 282.623 55.4156 282.506C57.9969 282.4 59.8422 281.344 60.6276 280.83" stroke="#39424E" stroke-width="0.702667" stroke-miterlimit="10" stroke-linecap="round"/>
<path d="M53.5051 284.711C53.7291 284.812 54.0171 284.915 54.3598 284.971C55.1785 285.107 55.8505 284.902 56.1985 284.766" stroke="#39424E" stroke-width="0.702667" stroke-miterlimit="10" stroke-linecap="round"/>
<path d="M60.1355 263.754C61.2102 264.054 62.2848 264.353 63.3608 264.653" stroke="#39424E" stroke-width="0.702667" stroke-miterlimit="10" stroke-linecap="round"/>
<path d="M44.6302 264.641L48.6422 263.754" stroke="#39424E" stroke-width="0.702667" stroke-miterlimit="10" stroke-linecap="round"/>
<path d="M44.7487 266.207C45.7847 266.214 46.822 266.222 47.858 266.23" stroke="#39424E" stroke-width="0.702667" stroke-miterlimit="10" stroke-linecap="round"/>
<path d="M53.3945 271.43C52.4972 274.571 53.1225 277.1 54.4492 277.671C54.7038 277.78 55.2905 277.948 56.2892 277.518" stroke="#39424E" stroke-width="0.702667" stroke-miterlimit="10" stroke-linecap="round"/>
<path d="M37.7472 269.228C38.1339 269.191 38.5192 269.152 38.9059 269.115C38.9139 268.435 38.9206 267.755 38.9286 267.075C45.5512 262.975 47.5619 261.729 54.1846 257.629L69.2432 264.923L69.3446 268.776L70.7112 269.056L70.3352 255.627C70.2606 252.94 69.3419 250.316 67.5926 248.277C67.5766 248.259 67.5606 248.241 67.5459 248.224C63.2219 243.241 56.5686 243.429 55.5032 243.477C54.1072 243.208 49.8939 242.589 45.5046 244.873C43.6339 245.848 42.1872 247.111 41.0712 248.435C38.6486 251.312 37.4672 255.036 37.5419 258.797L37.7472 269.228Z" fill="#39424E"/>
<path d="M48.9713 272.992H43.398C42.0673 272.992 40.99 271.914 40.99 270.583V268.638C40.99 267.308 42.0673 266.23 43.398 266.23H48.9713C50.302 266.23 51.3807 267.308 51.3807 268.638V270.583C51.3807 271.914 50.302 272.992 48.9713 272.992Z" stroke="#39424E" stroke-width="0.702667" stroke-miterlimit="10" stroke-linecap="round"/>
<path d="M65.2096 272.931H58.4016C57.411 272.931 56.6096 272.128 56.6096 271.139V267.96C56.6096 266.97 57.411 266.168 58.4016 266.168H65.2096C66.199 266.168 67.0016 266.97 67.0016 267.96V271.139C67.0016 272.128 66.199 272.931 65.2096 272.931Z" stroke="#39424E" stroke-width="0.702667" stroke-miterlimit="10" stroke-linecap="round"/>
<path d="M51.3802 268.88C51.9616 268.703 52.8056 268.518 53.8336 268.528C55.0362 268.543 55.9989 268.824 56.6096 269.056" stroke="#39424E" stroke-width="0.702667" stroke-miterlimit="10" stroke-linecap="round"/>
<path d="M54.2734 243.293C54.2454 248.072 54.2148 252.85 54.1854 257.629" stroke="#E7EEEF" stroke-width="0.702667" stroke-miterlimit="10" stroke-linecap="round"/>
<path d="M27.8334 299.182C27.8174 299.284 27.524 301.228 28.8494 302.354C30.084 303.405 32.2107 303.309 33.6547 301.885C33.5654 302.288 33.3894 303.336 33.8894 304.465C33.98 304.673 34.888 306.629 36.936 306.809C38.796 306.97 39.9974 305.53 40.1 305.402C39.744 307.033 40.4467 308.662 41.7413 309.386C43.3467 310.284 45.6307 309.658 46.6774 307.786C46.8907 309.46 48.1907 310.788 49.828 311.028C51.3867 311.256 52.9427 310.45 53.6773 309.026C54.2827 310.452 55.6347 311.393 57.0907 311.412C58.8534 311.433 60.4734 310.101 60.8454 308.214C61.2254 309.836 62.6773 310.957 64.244 310.91C65.9867 310.86 67.476 309.377 67.5253 307.512C67.6013 307.621 68.7654 309.24 70.5734 309.153C72.26 309.07 73.8 307.536 73.952 305.473C74.788 306.429 76.008 306.924 77.136 306.692C78.736 306.362 79.972 304.606 79.7147 302.589C79.8413 302.716 81.1267 303.954 82.644 303.645C84.232 303.32 85.5054 301.416 85.1374 299.186C84.104 298.641 83.072 298.097 82.0387 297.552C78.7307 299.92 70.2093 305.341 58.036 305.866C43.888 306.477 33.8214 300.085 30.6307 297.868C29.6974 298.306 28.7654 298.744 27.8334 299.182Z" fill="white"/>
<path d="M27.8334 299.182C27.8174 299.284 27.524 301.228 28.8494 302.354C30.084 303.405 32.2107 303.309 33.6547 301.885C33.5654 302.288 33.3894 303.336 33.8894 304.465C33.98 304.673 34.888 306.629 36.936 306.809C38.796 306.97 39.9974 305.53 40.1 305.402C39.744 307.033 40.4467 308.662 41.7413 309.386C43.3467 310.284 45.6307 309.658 46.6774 307.786C46.8907 309.46 48.1907 310.788 49.828 311.028C51.3867 311.256 52.9427 310.45 53.6773 309.026C54.2827 310.452 55.6347 311.393 57.0907 311.412C58.8534 311.433 60.4734 310.101 60.8454 308.214C61.2254 309.836 62.6773 310.957 64.244 310.91C65.9867 310.86 67.476 309.377 67.5253 307.512C67.6013 307.621 68.7654 309.24 70.5734 309.153C72.26 309.07 73.8 307.536 73.952 305.473C74.788 306.429 76.008 306.924 77.136 306.692C78.736 306.362 79.972 304.606 79.7147 302.589C79.8413 302.716 81.1267 303.954 82.644 303.645C84.232 303.32 85.5054 301.416 85.1374 299.186C84.104 298.641 83.072 298.097 82.0387 297.552C78.7307 299.92 70.2093 305.341 58.036 305.866C43.888 306.477 33.8214 300.085 30.6307 297.868C29.6974 298.306 28.7654 298.744 27.8334 299.182Z" stroke="#39424E" stroke-width="0.702667" stroke-miterlimit="10" stroke-linecap="round"/>
<path d="M21.1081 175.355C17.3907 175.355 14.3761 172.341 14.3761 168.623C14.3761 164.905 17.3907 161.89 21.1081 161.89C24.8267 161.89 27.8414 164.905 27.8414 168.623C27.8414 172.341 24.8267 175.355 21.1081 175.355ZM37.4347 168.746L37.1281 165.362C37.0467 164.485 36.2574 163.846 35.3827 163.953C34.8894 164.013 34.3961 164.074 33.9014 164.134C32.1787 164.343 31.0627 162.366 32.1334 160.999L33.1841 159.659C33.7094 158.989 33.6001 158.021 32.9387 157.485L30.2001 155.262C29.5054 154.698 28.4801 154.831 27.9547 155.555L27.2254 156.558C26.0921 158.117 23.6374 157.494 23.3841 155.586L23.1387 153.751C23.0227 152.878 22.2121 152.27 21.3414 152.401C20.2254 152.57 19.1107 152.739 17.9961 152.907C17.1361 153.038 16.5441 153.839 16.6734 154.701L16.8627 155.963C17.1427 157.831 14.9907 159.077 13.5107 157.902L12.3934 157.015C11.7427 156.498 10.8001 156.582 10.2494 157.207C9.46939 158.095 8.68805 158.983 7.90539 159.873C7.34939 160.503 7.39472 161.465 8.00805 162.042C8.46539 162.47 8.92139 162.899 9.37872 163.329C10.5587 164.438 9.95072 166.417 8.35339 166.671C7.73072 166.77 7.10939 166.869 6.48672 166.967C5.67339 167.098 5.10005 167.837 5.17872 168.658L5.48405 171.875C5.56539 172.717 6.30272 173.343 7.14672 173.283L8.97739 173.157C10.6254 173.042 11.6587 174.899 10.6921 176.238C10.3401 176.726 9.98805 177.214 9.63605 177.701C9.15205 178.371 9.27339 179.302 9.91339 179.825C10.7694 180.522 11.6241 181.219 12.4787 181.918C13.1067 182.431 14.0241 182.378 14.5867 181.795C15.0254 181.342 15.4654 180.89 15.9041 180.438C17.1614 179.138 19.3627 179.875 19.5881 181.669C19.6534 182.194 19.7201 182.719 19.7854 183.245C19.8921 184.099 20.6707 184.706 21.5241 184.601C22.6201 184.466 23.7147 184.33 24.8094 184.197C25.6681 184.091 26.2774 183.307 26.1681 182.447C26.0974 181.907 26.0281 181.367 25.9601 180.826C25.7414 179.118 27.6827 177.989 29.0587 179.021C29.5694 179.403 30.0787 179.785 30.5881 180.167C31.2521 180.666 32.1907 180.557 32.7227 179.921L34.8041 177.433C35.3561 176.773 35.2707 175.791 34.6134 175.238C34.1601 174.854 33.7054 174.471 33.2521 174.089C31.9574 172.995 32.5801 170.885 34.2601 170.669C34.8654 170.593 35.4721 170.514 36.0787 170.437C36.9121 170.329 37.5107 169.583 37.4347 168.746" fill="white"/>
<path d="M21.1081 175.355C17.3907 175.355 14.3761 172.341 14.3761 168.623C14.3761 164.905 17.3907 161.89 21.1081 161.89C24.8267 161.89 27.8414 164.905 27.8414 168.623C27.8414 172.341 24.8267 175.355 21.1081 175.355ZM37.4347 168.746L37.1281 165.362C37.0467 164.485 36.2574 163.846 35.3827 163.953C34.8894 164.013 34.3961 164.074 33.9014 164.134C32.1787 164.343 31.0627 162.366 32.1334 160.999L33.1841 159.659C33.7094 158.989 33.6001 158.021 32.9387 157.485L30.2001 155.262C29.5054 154.698 28.4801 154.831 27.9547 155.555L27.2254 156.558C26.0921 158.117 23.6374 157.494 23.3841 155.586L23.1387 153.751C23.0227 152.878 22.2121 152.27 21.3414 152.401C20.2254 152.57 19.1107 152.739 17.9961 152.907C17.1361 153.038 16.5441 153.839 16.6734 154.701L16.8627 155.963C17.1427 157.831 14.9907 159.077 13.5107 157.902L12.3934 157.015C11.7427 156.498 10.8001 156.582 10.2494 157.207C9.46939 158.095 8.68805 158.983 7.90539 159.873C7.34939 160.503 7.39472 161.465 8.00805 162.042C8.46539 162.47 8.92139 162.899 9.37872 163.329C10.5587 164.438 9.95072 166.417 8.35339 166.671C7.73072 166.77 7.10939 166.869 6.48672 166.967C5.67339 167.098 5.10005 167.837 5.17872 168.658L5.48405 171.875C5.56539 172.717 6.30272 173.343 7.14672 173.283L8.97739 173.157C10.6254 173.042 11.6587 174.899 10.6921 176.238C10.3401 176.726 9.98805 177.214 9.63605 177.701C9.15205 178.371 9.27339 179.302 9.91339 179.825C10.7694 180.522 11.6241 181.219 12.4787 181.918C13.1067 182.431 14.0241 182.378 14.5867 181.795C15.0254 181.342 15.4654 180.89 15.9041 180.438C17.1614 179.138 19.3627 179.875 19.5881 181.669C19.6534 182.194 19.7201 182.719 19.7854 183.245C19.8921 184.099 20.6707 184.706 21.5241 184.601C22.6201 184.466 23.7147 184.33 24.8094 184.197C25.6681 184.091 26.2774 183.307 26.1681 182.447C26.0974 181.907 26.0281 181.367 25.9601 180.826C25.7414 179.118 27.6827 177.989 29.0587 179.021C29.5694 179.403 30.0787 179.785 30.5881 180.167C31.2521 180.666 32.1907 180.557 32.7227 179.921L34.8041 177.433C35.3561 176.773 35.2707 175.791 34.6134 175.238C34.1601 174.854 33.7054 174.471 33.2521 174.089C31.9574 172.995 32.5801 170.885 34.2601 170.669C34.8654 170.593 35.4721 170.514 36.0787 170.437C36.9121 170.329 37.5107 169.583 37.4347 168.746V168.746Z" stroke="#39424E" stroke-miterlimit="10"/>
<path d="M225.447 379.358C225.447 372.116 219.347 366.3 212.005 366.765C205.587 367.169 200.433 372.489 200.212 378.914C200.073 382.968 201.848 386.609 204.701 389.013C205.777 389.92 206.601 391.088 207.153 392.382L207.168 392.414C208.016 394.409 208.201 396.277 208.177 397.676C208.156 398.897 208.912 400.002 210.047 400.456C210.817 400.764 211.752 401.025 212.825 401.118C214.508 401.266 215.964 400.95 217.088 400.538C218.38 400.064 219.133 398.738 218.975 397.372C218.752 395.429 219.015 393.937 219.353 392.849C220.581 388.924 223.621 387.761 224.941 382.901C225.149 382.136 225.447 380.861 225.447 379.358Z" fill="white"/>
<path d="M225.447 379.358C225.447 372.116 219.347 366.3 212.005 366.765C205.587 367.169 200.433 372.489 200.212 378.914C200.073 382.968 201.848 386.609 204.701 389.013C205.777 389.92 206.601 391.088 207.153 392.382L207.168 392.414C208.016 394.409 208.201 396.277 208.177 397.676C208.156 398.897 208.912 400.002 210.047 400.456C210.817 400.764 211.752 401.025 212.825 401.118C214.508 401.266 215.964 400.95 217.088 400.538C218.38 400.064 219.133 398.738 218.975 397.372C218.752 395.429 219.015 393.937 219.353 392.849C220.581 388.924 223.621 387.761 224.941 382.901C225.149 382.136 225.447 380.861 225.447 379.358Z" stroke="#39424E" stroke-width="0.653333" stroke-miterlimit="10"/>
<path d="M207.168 379.794C208.764 384.436 210.36 389.078 211.956 393.72Z" fill="white"/>
<path d="M207.168 379.794C208.764 384.436 210.36 389.078 211.956 393.72" stroke="#39424E" stroke-width="0.653333" stroke-miterlimit="10"/>
<path d="M214.131 393.285C215.291 388.788 216.451 384.291 217.613 379.795Z" fill="white"/>
<path d="M214.131 393.285C215.291 388.788 216.451 384.291 217.613 379.795" stroke="#39424E" stroke-width="0.653333" stroke-miterlimit="10"/>
<path d="M207.168 379.794C208.32 380.882 209.884 381.23 211.085 380.664C212.652 379.925 213.333 377.756 212.825 377.182C212.569 376.894 211.908 376.894 211.52 377.182C211.151 377.457 211.097 377.941 211.085 378.053C210.932 379.428 212.841 381.742 215.001 381.534C216.517 381.388 217.428 380.072 217.613 379.794" fill="white"/>
<path d="M207.168 379.794C208.32 380.882 209.884 381.23 211.085 380.664C212.652 379.925 213.333 377.756 212.825 377.182C212.569 376.894 211.908 376.894 211.52 377.182C211.151 377.457 211.097 377.941 211.085 378.053C210.932 379.428 212.841 381.742 215.001 381.534C216.517 381.388 217.428 380.072 217.613 379.794" stroke="#39424E" stroke-width="0.653333" stroke-miterlimit="10"/>
<path d="M207.168 392.414C208.327 392.937 210.296 393.646 212.825 393.719C215.82 393.807 218.136 392.962 219.353 392.414" stroke="#39424E" stroke-width="0.653333" stroke-miterlimit="10"/>
<path d="M208.039 395.461C208.984 395.948 210.648 396.648 212.826 396.766C215.718 396.925 217.916 395.974 218.918 395.461" fill="white"/>
<path d="M208.039 395.461C208.984 395.948 210.648 396.648 212.826 396.766C215.718 396.925 217.916 395.974 218.918 395.461" stroke="#39424E" stroke-width="0.653333" stroke-miterlimit="10"/>
<path d="M29.8047 226.586C29.8047 228.882 27.9433 230.742 25.6487 230.742C23.3513 230.742 21.4913 228.882 21.4913 226.586C21.4913 224.29 23.3513 222.429 25.6487 222.429C27.9433 222.429 29.8047 224.29 29.8047 226.586Z" fill="#E7EEEF"/>
<path d="M29.8047 226.586C29.8047 228.882 27.9433 230.742 25.6487 230.742C23.3513 230.742 21.4913 228.882 21.4913 226.586C21.4913 224.29 23.3513 222.429 25.6487 222.429C27.9433 222.429 29.8047 224.29 29.8047 226.586Z" stroke="#39424E" stroke-width="1.33333" stroke-miterlimit="10"/>
<path d="M341.432 35.9741C341.432 41.3594 341.118 46.6768 340.495 51.9114C340.367 52.9821 339.792 53.9608 338.911 54.6194C338.84 54.6741 338.764 54.7248 338.688 54.7768C334.387 57.8741 329.866 60.7514 325.126 63.4101C320.348 66.0821 315.48 68.4661 310.546 70.5528C310.475 70.5888 310.4 70.6154 310.33 70.6488C310.306 70.6634 310.278 70.6714 310.248 70.6848C309.264 71.0688 308.166 71.0741 307.176 70.6941C307.082 70.6541 306.983 70.6154 306.888 70.5701C306.884 70.5701 306.879 70.5701 306.874 70.5661C301.93 68.4754 297.056 66.0914 292.272 63.4101C287.526 60.7514 283.002 57.8741 278.698 54.7768C278.623 54.7248 278.547 54.6741 278.476 54.6194C277.6 53.9608 277.024 52.9821 276.898 51.9114C276.275 46.6808 275.96 41.3648 275.96 35.9741C275.96 30.6288 276.271 25.3581 276.879 20.1688C276.894 20.0234 276.906 19.8768 276.931 19.7301C277.08 18.8341 277.552 18.0101 278.25 17.4008C278.255 17.3914 278.264 17.3888 278.27 17.3888C278.448 17.2554 278.627 17.1261 278.806 17.0021C283.11 13.9141 287.63 11.0368 292.367 8.37809C297.203 5.66476 302.132 3.25809 307.134 1.14876C307.195 1.12076 307.26 1.09809 307.327 1.07009C308.208 0.750092 309.155 0.746091 310.023 1.05276C310.042 1.05809 310.06 1.06076 310.072 1.07009C310.179 1.11276 310.283 1.15809 310.386 1.20342C315.35 3.29409 320.238 5.68742 325.024 8.37409C329.782 11.0421 334.324 13.9381 338.642 17.0408C338.794 17.1408 338.944 17.2501 339.095 17.3648C339.104 17.3648 339.114 17.3741 339.123 17.3888C339.835 17.9968 340.306 18.8248 340.46 19.7301C340.486 19.8768 340.499 20.0234 340.514 20.1688C341.122 25.3581 341.432 30.6288 341.432 35.9741Z" fill="#E7EEEF"/>
<path d="M341.432 35.9741C341.432 41.3594 341.118 46.6768 340.495 51.9114C340.367 52.9821 339.792 53.9608 338.911 54.6194C338.84 54.6741 338.764 54.7248 338.688 54.7768C334.387 57.8741 329.866 60.7514 325.126 63.4101C320.348 66.0821 315.48 68.4661 310.546 70.5528C310.475 70.5888 310.4 70.6154 310.33 70.6488C310.306 70.6634 310.278 70.6714 310.248 70.6848C309.264 71.0688 308.166 71.0741 307.176 70.6941C307.082 70.6541 306.983 70.6154 306.888 70.5701C306.884 70.5701 306.879 70.5701 306.874 70.5661C301.93 68.4754 297.056 66.0914 292.272 63.4101C287.526 60.7514 283.002 57.8741 278.698 54.7768C278.623 54.7248 278.547 54.6741 278.476 54.6194C277.6 53.9608 277.024 52.9821 276.898 51.9114C276.275 46.6808 275.96 41.3648 275.96 35.9741C275.96 30.6288 276.271 25.3581 276.879 20.1688C276.894 20.0234 276.906 19.8768 276.931 19.7301C277.08 18.8341 277.552 18.0101 278.25 17.4008C278.255 17.3914 278.264 17.3888 278.27 17.3888C278.448 17.2554 278.627 17.1261 278.806 17.0021C283.11 13.9141 287.63 11.0368 292.367 8.37809C297.203 5.66476 302.132 3.25809 307.134 1.14876C307.195 1.12076 307.26 1.09809 307.327 1.07009C308.208 0.750092 309.155 0.746091 310.023 1.05276C310.042 1.05809 310.06 1.06076 310.072 1.07009C310.179 1.11276 310.283 1.15809 310.386 1.20342C315.35 3.29409 320.238 5.68742 325.024 8.37409C329.782 11.0421 334.324 13.9381 338.642 17.0408C338.794 17.1408 338.944 17.2501 339.095 17.3648C339.104 17.3648 339.114 17.3741 339.123 17.3888C339.835 17.9968 340.306 18.8248 340.46 19.7301C340.486 19.8768 340.499 20.0234 340.514 20.1688C341.122 25.3581 341.432 30.6288 341.432 35.9741Z" stroke="#39424E" stroke-miterlimit="10"/>
<path d="M337.009 35.9077C337.009 40.565 336.736 45.1623 336.198 49.6903C336.088 50.6157 335.59 51.4623 334.828 52.033C334.766 52.0797 334.702 52.1237 334.637 52.1663C330.916 54.8463 327.006 57.3343 322.906 59.6343C318.777 61.945 314.566 64.0063 310.298 65.8117C310.237 65.8423 310.172 65.8663 310.11 65.893C310.092 65.9063 310.066 65.9143 310.041 65.9263C309.19 66.2583 308.241 66.2623 307.384 65.9343C307.304 65.897 307.217 65.8663 307.136 65.8263C307.132 65.8263 307.128 65.8263 307.124 65.8237C302.848 64.0143 298.633 61.953 294.496 59.6343C290.392 57.3343 286.478 54.8463 282.757 52.1663C282.692 52.1237 282.626 52.0797 282.565 52.033C281.808 51.4623 281.31 50.6157 281.201 49.6903C280.661 45.1663 280.389 40.569 280.389 35.9077C280.389 31.2863 280.657 26.7277 281.184 22.241C281.196 22.113 281.208 21.9877 281.229 21.861C281.36 21.085 281.766 20.373 282.37 19.8463C282.372 19.8383 282.381 19.8343 282.386 19.8343C282.538 19.7197 282.696 19.609 282.85 19.5023C286.572 16.8303 290.481 14.3423 294.578 12.0437C298.76 9.697 303.024 7.61567 307.348 5.79167C307.401 5.76767 307.458 5.74767 307.514 5.72367C308.277 5.44634 309.094 5.44234 309.846 5.709C309.862 5.713 309.878 5.71567 309.89 5.72367C309.981 5.75967 310.07 5.79967 310.16 5.83834C314.452 7.64767 318.678 9.71567 322.82 12.0397C326.932 14.3463 330.862 16.8517 334.594 19.5343C334.726 19.621 334.857 19.7157 334.986 19.8157C334.994 19.8157 335.004 19.8237 335.012 19.8343C335.628 20.361 336.036 21.077 336.169 21.861C336.19 21.9877 336.202 22.113 336.213 22.241C336.74 26.7277 337.009 31.2863 337.009 35.9077Z" stroke="#39424E" stroke-miterlimit="10"/>
<path d="M307.583 11.685C307.626 11.6663 307.669 11.649 307.714 11.6303C307.757 11.6103 307.803 11.5956 307.849 11.5756C308.466 11.3503 309.13 11.3476 309.738 11.5623C309.751 11.565 309.765 11.569 309.775 11.5756C309.846 11.6036 309.919 11.637 309.993 11.6676C313.469 13.133 316.893 14.8103 320.249 16.6916C323.579 18.5596 326.763 20.5903 329.787 22.7636C329.893 22.833 329.999 22.9103 330.106 22.9903C330.111 22.9903 330.118 22.997 330.125 23.0063C330.623 23.433 330.953 24.013 331.062 24.649C331.079 24.7503 331.089 24.853 331.099 24.9556C331.525 28.5916 331.742 32.2836 331.742 36.0276C331.742 39.801 331.522 43.5263 331.086 47.193C330.997 47.9423 330.594 48.629 329.977 49.0916C329.927 49.129 329.874 49.1636 329.821 49.1996C326.806 51.3703 323.639 53.3863 320.318 55.249C316.973 57.121 313.561 58.7903 310.105 60.253C310.055 60.2783 310.002 60.297 309.953 60.321C309.937 60.329 309.917 60.3356 309.895 60.345C309.206 60.6143 308.437 60.6183 307.743 60.3516C307.677 60.3236 307.609 60.297 307.542 60.2663C307.539 60.2663 307.535 60.2663 307.533 60.2623" stroke="#39424E" stroke-miterlimit="10"/>
<path d="M307.532 60.2617C304.067 58.7964 300.654 57.1271 297.302 55.2484C293.976 53.3871 290.807 51.3697 287.792 49.1991C287.739 49.1644 287.686 49.1284 287.636 49.0911C287.023 48.6284 286.619 47.9431 286.531 47.1924C286.095 43.5284 285.874 39.8031 285.874 36.0271C285.874 32.2844 286.092 28.5911 286.518 24.9564C286.527 24.8524 286.538 24.7497 286.555 24.6484C286.66 24.0191 286.99 23.4431 287.479 23.0151C287.482 23.0097 287.488 23.0071 287.492 23.0071C287.616 22.9137 287.743 22.8244 287.868 22.7364C290.883 20.5724 294.05 18.5577 297.368 16.6937C300.714 14.8177 304.123 13.1497 307.583 11.6844" stroke="#B7C9CC" stroke-miterlimit="10"/>
<path d="M320.564 47.8177C319.518 48.4751 318.45 49.1111 317.36 49.7231C314.949 51.0711 312.492 52.2751 310.001 53.3284C309.966 53.3457 309.926 53.3604 309.892 53.3764C309.88 53.3831 309.868 53.3884 309.852 53.3951C309.354 53.5884 308.8 53.5911 308.301 53.4004C308.253 53.3791 308.202 53.3604 308.154 53.3377C308.152 53.3377 308.15 53.3377 308.148 53.3351C305.652 52.2791 303.193 51.0751 300.778 49.7231C298.382 48.3817 296.098 46.9284 293.926 45.3644C293.889 45.3404 293.852 45.3137 293.814 45.2871C293.372 44.9551 293.082 44.4591 293.018 43.9191C292.704 41.2804 292.545 38.5964 292.545 35.8751C292.545 33.1791 292.702 30.5177 293.009 27.8991C293.016 27.8244 293.024 27.7511 293.036 27.6777C293.11 27.2244 293.349 26.8084 293.701 26.5017C293.703 26.4977 293.708 26.4951 293.711 26.4951C293.801 26.4271 293.892 26.3631 293.981 26.3004C294.708 25.7804 295.446 25.2697 296.197 24.7724" stroke="#39424E" stroke-miterlimit="10"/>
<path d="M296.197 24.7722C297.691 23.7828 299.234 22.8415 300.826 21.9482C303.267 20.5775 305.755 19.3628 308.279 18.2988C308.31 18.2855 308.343 18.2735 308.377 18.2588C308.822 18.0975 309.299 18.0948 309.737 18.2495C309.746 18.2522 309.757 18.2548 309.763 18.2588C309.815 18.2802 309.869 18.3028 309.921 18.3268C312.426 19.3815 314.891 20.5895 317.309 21.9455C319.71 23.2922 322.002 24.7535 324.182 26.3188C324.258 26.3695 324.335 26.4255 324.41 26.4828C324.415 26.4828 324.419 26.4882 324.425 26.4948C324.783 26.8015 325.022 27.2202 325.101 27.6775C325.113 27.7508 325.118 27.8242 325.126 27.8988C325.434 30.5188 325.59 33.1788 325.59 35.8748C325.59 38.5935 325.431 41.2775 325.117 43.9188C325.053 44.4602 324.762 44.9548 324.318 45.2868C324.281 45.3135 324.243 45.3402 324.206 45.3642C323.025 46.2148 321.81 47.0322 320.563 47.8175" stroke="#B7C9CC" stroke-miterlimit="10"/>
<path d="M308.161 48.3777C308.129 48.363 308.093 48.3497 308.061 48.3337C308.06 48.3337 308.057 48.3337 308.056 48.3324C306.319 47.5977 304.607 46.7604 302.927 45.819C301.259 44.8844 299.671 43.8737 298.159 42.7857C298.132 42.7684 298.105 42.7497 298.08 42.731C297.773 42.5004 297.571 42.155 297.525 41.7804C297.307 39.943 297.196 38.0737 297.196 36.1817C297.196 34.303 297.305 32.4524 297.52 30.6284C297.523 30.5777 297.529 30.5257 297.537 30.475C297.591 30.1604 297.756 29.871 298.001 29.6577C298.003 29.6537 298.007 29.6524 298.008 29.6524C298.071 29.6057 298.133 29.5617 298.196 29.5164C299.708 28.4324 301.296 27.4204 302.96 26.487C303.9 25.9604 304.849 25.4657 305.808 25.0044" stroke="#B7C9CC" stroke-miterlimit="10"/>
<path d="M305.808 25.004C306.582 24.6306 307.362 24.2786 308.147 23.948C308.17 23.9386 308.191 23.9293 308.215 23.9213C308.524 23.8093 308.858 23.8066 309.162 23.9146C309.17 23.916 309.174 23.9173 309.179 23.9213C309.216 23.9346 309.252 23.9506 309.288 23.968C311.032 24.7013 312.75 25.5413 314.432 26.4853C316.103 27.4226 317.699 28.44 319.215 29.5306C319.268 29.5653 319.322 29.604 319.374 29.644C319.378 29.644 319.38 29.6466 319.384 29.652C319.634 29.8653 319.799 30.156 319.854 30.476C319.863 30.5266 319.867 30.5786 319.872 30.6293C320.086 32.452 320.195 34.304 320.195 36.1813C320.195 38.0733 320.084 39.94 319.866 41.78C319.822 42.1546 319.619 42.5 319.31 42.7306C319.283 42.7506 319.258 42.768 319.231 42.7853C317.72 43.8733 316.132 44.884 314.467 45.8186C312.788 46.7573 311.079 47.5946 309.346 48.328C309.322 48.34 309.294 48.3506 309.27 48.3613C309.262 48.3653 309.251 48.3693 309.242 48.3733C308.894 48.5093 308.507 48.5106 308.162 48.3773" stroke="#39424E" stroke-miterlimit="10"/>
<path d="M305.984 40.3842C305.179 39.9335 304.41 39.4455 303.679 38.9188C303.668 38.9108 303.655 38.9028 303.643 38.8935C303.495 38.7815 303.398 38.6148 303.375 38.4335C303.27 37.5455 303.216 36.6428 303.216 35.7295C303.216 34.8215 303.268 33.9268 303.372 33.0468C303.374 33.0228 303.376 32.9975 303.38 32.9722C303.406 32.8202 303.486 32.6815 303.604 32.5775C303.606 32.5762 303.607 32.5748 303.608 32.5748C303.638 32.5522 303.668 32.5295 303.699 32.5095C304.43 31.9855 305.196 31.4975 306 31.0455C306.82 30.5855 307.658 30.1775 308.506 29.8188C308.515 29.8135 308.527 29.8108 308.539 29.8055C308.688 29.7508 308.848 29.7508 308.996 29.8028C308.999 29.8028 309.003 29.8042 309.006 29.8055C309.022 29.8122 309.04 29.8202 309.058 29.8282C309.9 30.1842 310.73 30.5895 311.542 31.0455" stroke="#39424E" stroke-miterlimit="10"/>
<path d="M311.541 31.0455C312.347 31.4975 313.12 31.9895 313.851 32.5162C313.877 32.5322 313.903 32.5522 313.929 32.5709C313.931 32.5709 313.932 32.5735 313.933 32.5735C314.055 32.6789 314.135 32.8189 314.161 32.9722C314.165 32.9975 314.168 33.0215 314.171 33.0469C314.273 33.9269 314.325 34.8215 314.325 35.7295C314.325 36.6429 314.272 37.5442 314.167 38.4335C314.145 38.6149 314.048 38.7815 313.899 38.8935C313.887 38.9029 313.873 38.9095 313.86 38.9189C313.129 39.4455 312.363 39.9335 311.559 40.3842C310.748 40.8375 309.921 41.2415 309.084 41.5962C309.071 41.6029 309.06 41.6069 309.048 41.6135C309.044 41.6149 309.039 41.6175 309.033 41.6189C308.867 41.6842 308.68 41.6842 308.513 41.6215C308.497 41.6135 308.48 41.6069 308.463 41.5989H308.46C307.623 41.2429 306.793 40.8402 305.984 40.3842" stroke="#B7C9CC" stroke-miterlimit="10"/>
<path d="M349.411 35.5977C350.447 34.6897 351.486 33.783 352.523 32.875L345.957 32.707C344.963 33.671 343.97 34.6323 342.975 35.595C345.121 35.5963 347.266 35.5977 349.411 35.5977Z" stroke="#B7C9CC" stroke-miterlimit="10"/>
<path d="M343.549 37.7903C344.359 38.617 345.169 39.4437 345.979 40.269C348.085 40.2797 350.189 40.289 352.299 40.2983C351.543 39.489 350.789 38.6823 350.033 37.873C347.872 37.8463 345.711 37.8183 343.549 37.7903Z" stroke="#B7C9CC" stroke-miterlimit="10"/>
<path d="M345.738 37.8191C346.493 38.6391 347.248 39.4577 348.001 40.2791" stroke="#B7C9CC" stroke-miterlimit="10"/>
<path d="M347.961 37.8476L350.258 40.2889" stroke="#B7C9CC" stroke-miterlimit="10"/>
<path d="M308.697 37.1979C322.494 37.2752 336.29 37.3499 350.089 37.4272" stroke="#39424E" stroke-miterlimit="10" stroke-linecap="round"/>
<path d="M342.625 37.3855C343.642 38.4948 344.658 39.6055 345.676 40.7148C348.197 40.7241 350.717 40.7335 353.238 40.7441C352.188 39.6375 351.138 38.5321 350.089 37.4268C350.078 36.8295 350.068 36.2335 350.057 35.6361C351.21 34.5695 352.368 33.5041 353.524 32.4375C350.934 32.3948 348.349 32.3508 345.764 32.3068L342.646 35.4601" stroke="#39424E" stroke-miterlimit="10" stroke-linecap="round"/>
<path d="M387.645 108.453C387.645 112.318 384.507 115.454 380.643 115.454C376.777 115.454 373.642 112.318 373.642 108.453C373.642 104.586 376.777 101.452 380.643 101.452C384.507 101.452 387.645 104.586 387.645 108.453Z" fill="#E7EEEF"/>
<path d="M387.645 108.453C387.645 112.318 384.507 115.454 380.643 115.454C376.777 115.454 373.642 112.318 373.642 108.453C373.642 104.586 376.777 101.452 380.643 101.452C384.507 101.452 387.645 104.586 387.645 108.453Z" stroke="#39424E" stroke-width="1.33333" stroke-miterlimit="10"/>
</svg>
